<svg width="55" height="55" viewBox="0 0 55 55" fill="none" xmlns="http://www.w3.org/2000/svg">
<g clip-path="url(#clip0_1_1913)">
<path d="M46.9399 45.8899C57.6782 35.3923 57.6782 18.3723 46.9399 7.87476C36.2016 -2.62283 18.7914 -2.62283 8.05308 7.87476C-2.68521 18.3723 -2.68521 35.3923 8.05308 45.8899C18.7914 56.3875 36.2016 56.3875 46.9399 45.8899Z" fill="#F5834E"/>
<mask id="mask0_1_1913" style="mask-type:luminance" maskUnits="userSpaceOnUse" x="-1" y="0" width="56" height="54">
<path d="M46.9399 45.8899C57.6781 35.3923 57.6781 18.3723 46.9399 7.87476C36.2016 -2.62283 18.7914 -2.62283 8.05307 7.87476C-2.68522 18.3723 -2.68522 35.3923 8.05307 45.8899C18.7914 56.3875 36.2016 56.3875 46.9399 45.8899Z" fill="white"/>
</mask>
<g mask="url(#mask0_1_1913)">
<path d="M32.7625 35.7317H22.2323V42.6664H32.7625V35.7317Z" fill="#FBBCA0"/>
<path d="M24.786 40.7504C26.3729 41.3668 28.1122 41.7366 29.8199 41.7521C30.7973 41.7623 31.7957 41.639 32.7625 41.4747V35.7317H22.2323V39.3172C22.9732 39.9593 23.919 40.4113 24.786 40.7504Z" fill="#E6E7E8"/>
<path d="M38.4953 22.8896C38.5268 22.6379 38.9577 22.227 39.1469 22.0883C39.562 21.7801 39.9823 22.0986 40.1085 22.4992C40.2188 22.8588 40.2293 23.2646 40.2556 23.6345C40.3186 24.5437 40.182 25.4375 39.7722 26.2594C39.4989 26.809 39.068 27.2559 38.5636 27.595C38.5636 27.595 38.0171 27.8672 37.9068 27.2405C37.9015 27.2405 38.49 22.8896 38.4953 22.8896Z" fill="#FBBCA0"/>
<path d="M38.406 23.4342C38.4322 23.2544 38.737 22.9616 38.8684 22.8589C39.1679 22.638 39.4674 22.864 39.5567 23.1517C39.6355 23.4085 39.6408 23.6962 39.6618 23.9633C39.7091 24.6157 39.6093 25.2527 39.315 25.8383C39.1206 26.2287 38.8106 26.5523 38.448 26.7937C38.448 26.7937 38.0592 26.9889 37.9803 26.542C37.9803 26.5523 38.406 23.4342 38.406 23.4342Z" fill="#DDA78F"/>
<path d="M16.2367 22.8896C16.2 22.6379 15.7743 22.227 15.5852 22.0883C15.1701 21.7801 14.7497 22.0986 14.6236 22.4992C14.5132 22.8588 14.5027 23.2646 14.4764 23.6345C14.4134 24.5437 14.55 25.4375 14.9599 26.2594C15.2331 26.809 15.6587 27.2559 16.1684 27.595C16.1684 27.595 16.7149 27.8672 16.8253 27.2405C16.8305 27.2405 16.2367 22.8896 16.2367 22.8896Z" fill="#FBBCA0"/>
<path d="M16.3208 23.4342C16.2945 23.2544 15.9898 22.9616 15.8584 22.8589C15.5589 22.638 15.2594 22.864 15.17 23.1517C15.0912 23.4085 15.086 23.6962 15.065 23.9633C15.0177 24.6157 15.1175 25.2527 15.4118 25.8383C15.6062 26.2287 15.9162 26.5523 16.2788 26.7937C16.2788 26.7937 16.6676 26.9889 16.7464 26.542C16.7464 26.5523 16.3261 23.4342 16.3208 23.4342Z" fill="#DDA78F"/>
<path d="M38.8263 23.7065C38.8263 26.578 38.3324 29.4803 36.9767 31.9666C35.7944 34.1394 34.0183 35.8808 32.1162 37.2678C30.5713 38.3927 28.9161 39.7078 26.9562 39.5485C24.9174 39.379 23.3305 37.6428 21.8382 36.2866C19.7416 34.3757 18.0916 32.0077 17.0722 29.2184C16.4469 27.4975 16.1579 25.5609 16.1579 23.7117C16.1579 14.4294 21.2339 8.594 27.4921 8.594C33.7504 8.58886 38.8263 14.4243 38.8263 23.7065Z" fill="#FBBCA0"/>
<path d="M45.8885 45.805L32.7625 42.4507H27.4974H22.2323L9.10625 45.805C9.10625 45.805 3.02666 48.0087 2.34882 54.9794H27.4974H52.6459C51.9681 48.0087 45.8885 45.805 45.8885 45.805Z" fill="#FBBCA0"/>
<path d="M45.8885 45.805L32.7625 42.4507H27.4974H22.2323L9.10625 45.805C9.10625 45.805 3.02666 48.0087 2.34882 54.9794H27.4974H52.6459C51.9681 48.0087 45.8885 45.805 45.8885 45.805Z" fill="white"/>
<path d="M45.8884 45.8051L36.1779 43.324L27.5025 54.9846L18.9165 43.2983L9.1114 45.8051C9.1114 45.8051 3.03182 48.0088 2.35397 54.9795H27.5025H52.6511C51.968 48.0088 45.8884 45.8051 45.8884 45.8051Z" fill="#3C0000"/>
<path d="M26.3466 49.1389L23.9295 54.9795H30.8025L28.4432 49.1389H26.3466Z" fill="#14BAAB"/>
<path d="M27.3396 42.5637L24.2604 46.6013L26.3991 49.1543L27.45 49.1389L28.4957 49.1234L30.5502 46.5037L27.3396 42.5637Z" fill="#14BAAB"/>
<path d="M29.3943 46.0721C29.0002 46.8323 28.2698 47.7005 27.2714 47.4847C26.2415 47.2638 25.7739 46.3135 26.0103 45.3478C26.2415 44.4078 26.8616 43.6218 27.2084 42.7332L24.2553 46.6012L26.3939 49.1542L28.4905 49.1182L30.545 46.4984L29.678 45.4351C29.5992 45.656 29.5046 45.8666 29.3943 46.0721Z" fill="#D1D3D4"/>
<path d="M27.4974 54.9795L18.9166 43.2983L12.0541 45.0551L20.824 51.0909L18.5698 52.0618L22.6264 54.9795H27.4974Z" fill="#250000"/>
<path d="M27.4974 55L36.0834 43.3137L42.9459 45.0705L34.176 51.1063L36.425 52.0771L32.3737 55H27.4974Z" fill="#250000"/>
<path d="M17.067 42.6974L22.2165 40.3345L27.4606 42.4765L32.71 40.3345L38.2115 42.6974L30.4347 47.788L27.4606 43.6272L24.2605 47.788L17.067 42.6974Z" fill="#E2E3E4"/>
<path d="M34.1339 35.5879C34.1339 35.5879 36.9819 32.9578 37.6072 30.636C37.6072 30.636 34.2495 33.5948 33.0778 33.2815L34.1339 35.5879Z" fill="#160100"/>
<path d="M21.6542 36.3738C21.6542 36.3738 18.3544 33.6102 17.4506 30.1479C17.4506 30.1479 21.2129 34.3961 22.3846 34.0776L21.6542 36.3738Z" fill="#160100"/>
<path d="M29.5046 31.8225C31.37 31.8482 32.3842 32.4749 32.3842 32.4749C34.0183 33.23 34.4387 35.2796 34.4387 35.2796C34.4387 35.2796 33.3142 36.497 31.9375 37.36C28.832 39.8771 27.408 39.5586 27.408 39.5586C25.6425 39.5637 24.4024 38.4798 24.4024 38.4798L21.4966 36.2556C21.134 33.7283 23.3935 32.4749 23.3935 32.4749C24.7492 31.8328 24.9909 31.915 24.9909 31.915C24.9909 31.915 27.0192 31.6838 27.5131 32.4698C27.5131 32.4698 28.0228 31.8174 29.4048 31.8174" fill="#1E0500"/>
<path d="M27.7706 33.9031C27.7706 33.9031 26.4937 33.2815 24.6389 33.9493C24.6389 33.9493 27.4553 36.867 30.6501 33.9853C30.6501 33.9853 28.9371 33.2045 27.7706 33.9031Z" fill="#FBBCA0"/>
<path d="M38.9262 10.0168C41.4799 8.19837 41.2014 5.40394 41.2014 5.40394C39.7143 7.00149 37.5389 7.20696 37.5389 7.20696C39.7932 5.8868 38.6739 3.13346 38.6739 3.13346C37.9698 4.67451 34.8381 5.55804 34.8381 5.55804C36.3567 4.56663 35.4108 2.31157 35.4108 2.31157C34.3494 4.0735 31.1756 4.84402 31.1756 4.84402C33.2617 3.68824 33.4824 2.03418 33.4824 2.03418C31.6222 3.63173 26.5568 4.40226 26.5568 4.40226C26.5568 4.40226 20.9712 4.90053 19.5839 9.43635C15.5011 10.0117 15.4643 16.7615 15.7481 20.4035L16.0055 24.8109H16.9146C16.51 22.6996 16.9146 19.8384 16.9146 19.8384C17.5399 17.7888 17.8604 16.5765 18.2598 15.7187C19.2266 13.6537 20.7347 13.027 21.6963 12.8421L22.6106 12.7753C26.6093 12.2051 27.7864 14.979 27.7864 14.979C28.4064 13.3814 30.4925 12.9962 30.4925 12.9962C36.5721 12.2051 37.4444 16.9053 37.4444 16.9053L38.1327 19.8949C38.2273 20.8915 38.3902 23.1979 38.0802 24.8109H38.9892L39.2467 20.4035C39.2519 20.2648 39.2519 20.1466 39.2467 20.0388C39.7091 17.5782 40.119 13.5766 38.9262 10.0168Z" fill="#160100"/>
</g>
</g>
<defs>
<clipPath id="clip0_1_1913">
<rect width="55" height="55" fill="white"/>
</clipPath>
</defs>
</svg>
