<svg width="24" height="24" viewBox="0 0 24 24" fill="none" xmlns="http://www.w3.org/2000/svg">
<path d="M7.15318 9.25978C7.25701 9.39725 7.56701 9.80763 7.75163 10.0442C8.1214 10.518 8.62664 11.1476 9.17167 11.7753C9.71945 12.4062 10.2949 13.0207 10.8061 13.4724C11.0624 13.6989 11.2876 13.871 11.4734 13.983C11.6482 14.0883 11.7514 14.1103 11.7514 14.1103C11.7514 14.1103 11.8516 14.0883 12.0264 13.983C12.2122 13.871 12.4374 13.6989 12.6937 13.4724C13.2049 13.0207 13.7804 12.4062 14.3281 11.7753C14.8732 11.1476 15.3784 10.518 15.7482 10.0442C15.9328 9.8076 16.2424 9.3978 16.3462 9.26033C16.5554 8.97622 16.9558 8.91494 17.2399 9.12418C17.524 9.33343 17.5847 9.73337 17.3755 10.0175L17.3738 10.0197C17.2649 10.1639 16.9439 10.5889 16.7555 10.8303C16.3774 11.3148 15.8574 11.963 15.293 12.6131C14.7313 13.2599 14.1132 13.9233 13.5398 14.4299C13.2538 14.6826 12.9639 14.9098 12.6861 15.0773C12.4258 15.2342 12.0962 15.3887 11.7499 15.3887C11.4036 15.3887 11.074 15.2342 10.8137 15.0773C10.5359 14.9098 10.246 14.6826 9.96003 14.4299C9.38663 13.9233 8.76846 13.26 8.20681 12.6131C7.64241 11.963 7.12241 11.3149 6.74429 10.8303C6.55579 10.5888 6.23471 10.1637 6.12602 10.0198L6.12461 10.0179C5.91536 9.73382 5.97576 9.33347 6.25987 9.12422C6.54397 8.91499 6.94392 8.97569 7.15318 9.25978Z" fill="#0D121C"/>
</svg>
