<svg width="30" height="30" viewBox="0 0 30 30" fill="none" xmlns="http://www.w3.org/2000/svg">
<path d="M16.875 26.2501V16.8751C16.875 16.3573 17.2947 15.9376 17.8125 15.9376H21.5625C22.0803 15.9376 22.5 16.3573 22.5 16.8751V26.2501M16.875 26.2501H2.9511M16.875 26.2501H22.5M22.5 26.2501H27.0489M25.3125 26.2501V11.686M4.6875 26.2501V11.6863M4.6875 11.6863C6.12162 12.5153 7.98722 12.3163 9.21415 11.0893C9.26993 11.0336 9.32358 10.9765 9.3751 10.9181C10.0622 11.6966 11.0675 12.1876 12.1875 12.1876C13.3075 12.1876 14.3129 11.6965 15 10.918C15.6871 11.6965 16.6925 12.1876 17.8125 12.1876C18.9324 12.1876 19.9376 11.6967 20.6248 10.9183C20.6762 10.9765 20.7298 11.0335 20.7855 11.0892C22.0125 12.3163 23.8783 12.5152 25.3125 11.686M4.6875 11.6863C4.40986 11.5259 4.14838 11.3269 3.91085 11.0893C2.44638 9.62486 2.44638 7.25049 3.91085 5.78603L5.39746 4.29942C5.74909 3.94779 6.226 3.75024 6.72328 3.75024H23.2765C23.7738 3.75024 24.2507 3.94779 24.6023 4.29942L26.0888 5.78592C27.5533 7.25039 27.5533 9.62475 26.0888 11.0892C25.8514 11.3267 25.59 11.5256 25.3125 11.686M8.4375 22.5001H13.125C13.6428 22.5001 14.0625 22.0803 14.0625 21.5626V16.8751C14.0625 16.3573 13.6428 15.9376 13.125 15.9376H8.4375C7.91973 15.9376 7.5 16.3573 7.5 16.8751V21.5626C7.5 22.0803 7.91973 22.5001 8.4375 22.5001Z" stroke="#72777A" stroke-width="1.5" stroke-linecap="round" stroke-linejoin="round"/>
</svg>
