<svg width="24" height="24" viewBox="0 0 24 24" fill="none" xmlns="http://www.w3.org/2000/svg">
<path d="M14.7207 5.5V4C14.7207 2.89543 13.8253 2 12.7207 2H11.7207C10.6161 2 9.7207 2.89543 9.7207 4V5.5M14.9708 12.7499L14.4708 19.2499M8.9708 12.7499L9.4708 19.2499M4.55333 8.4953H19.3879L18.2676 19.7959C18.1154 21.3306 16.8244 22.4999 15.2822 22.4999H8.65907C7.11685 22.4999 5.82586 21.3306 5.67371 19.7959L4.55333 8.4953ZM4.99187 8.4953H18.9496C19.2243 8.4953 19.4815 8.36084 19.6383 8.13532C20.4118 7.02291 19.6157 5.49988 18.2609 5.49988H5.68061C4.32573 5.49988 3.52969 7.02291 4.30314 8.13532C4.45994 8.36084 4.71721 8.4953 4.99187 8.4953Z" stroke="#B22023" stroke-width="1.5" stroke-linecap="round"/>
</svg>
