<svg width="141" height="140" viewBox="0 0 141 140" fill="none" xmlns="http://www.w3.org/2000/svg">
<path fill-rule="evenodd" clip-rule="evenodd" d="M70.4999 11.6665C54.3916 11.6665 41.3333 24.7249 41.3333 40.8332C41.3333 56.9415 54.3916 69.9998 70.4999 69.9998C86.6081 69.9998 99.6666 56.9415 99.6666 40.8332C99.6666 24.7249 86.6081 11.6665 70.4999 11.6665ZM52.9999 40.8332C52.9999 31.1682 60.8347 23.3332 70.4999 23.3332C80.1652 23.3332 87.9999 31.1682 87.9999 40.8332C87.9999 50.4981 80.1652 58.3332 70.4999 58.3332C60.8347 58.3332 52.9999 50.4981 52.9999 40.8332Z" fill="#72777A"/>
<path d="M35.4999 122.5C35.4999 103.17 51.1699 87.5002 70.4999 87.5002C73.7217 87.5002 76.3333 84.8886 76.3333 81.6668C76.3333 78.4451 73.7217 75.8335 70.4999 75.8335C44.7266 75.8335 23.8333 96.7267 23.8333 122.5C23.8333 125.722 26.445 128.333 29.6666 128.333C32.8882 128.333 35.4999 125.722 35.4999 122.5Z" fill="#72777A"/>
<path fill-rule="evenodd" clip-rule="evenodd" d="M115.458 89.2084C117.736 91.4864 117.736 95.18 115.458 97.4579L107.916 105L115.458 112.542C117.736 114.82 117.736 118.513 115.458 120.791C113.18 123.069 109.486 123.069 107.209 120.791L99.6666 113.249L92.1247 120.791C89.8468 123.069 86.1531 123.069 83.8752 120.791C81.5973 118.513 81.5973 114.82 83.8752 112.542L91.4171 105L83.8752 97.4579C81.5973 95.18 81.5973 91.4864 83.8752 89.2084C86.1531 86.9305 89.8468 86.9305 92.1247 89.2084L99.6666 96.7504L107.209 89.2084C109.486 86.9305 113.18 86.9305 115.458 89.2084Z" fill="#B22023"/>
</svg>
