<svg width="20" height="18" viewBox="0 0 20 18" fill="none" xmlns="http://www.w3.org/2000/svg">
<path d="M17.8678 6.08382C17.8678 6.08382 17.8675 6.08359 18.3332 5.66667C18.7988 5.24974 18.7985 5.24941 18.7985 5.24941L18.7971 5.24786L18.794 5.24447L18.7838 5.23324C18.7752 5.22382 18.763 5.21055 18.7473 5.19369C18.7159 5.15997 18.6704 5.11188 18.6115 5.05147C18.4938 4.93069 18.3225 4.7604 18.103 4.55712C17.6647 4.15112 17.0313 3.61044 16.2476 3.06909C14.6921 1.99461 12.4829 0.875 9.99982 0.875C7.51675 0.875 5.3076 1.99461 3.75206 3.06909C2.96834 3.61044 2.33492 4.15112 1.89664 4.55712C1.67719 4.7604 1.50582 4.93069 1.38814 5.05147C1.32928 5.11188 1.28379 5.15997 1.25236 5.19369C1.23664 5.21055 1.22444 5.22382 1.21583 5.23324L1.20562 5.24447L1.20256 5.24786L1.20155 5.24899C1.20155 5.24899 1.20088 5.24974 1.66649 5.66667C2.13211 6.08359 2.1319 6.08382 2.1319 6.08382L2.1328 6.08282L2.13884 6.07618C2.14463 6.06984 2.15394 6.05972 2.16667 6.04606C2.19214 6.01874 2.2313 5.97731 2.28345 5.92379C2.38778 5.8167 2.54386 5.66147 2.7461 5.47413C3.15119 5.09888 3.73816 4.5979 4.46248 4.09758C5.92301 3.08873 7.88053 2.125 9.99982 2.125C12.1191 2.125 14.0766 3.08873 15.5372 4.09758C16.2615 4.5979 16.8485 5.09888 17.2536 5.47413C17.4558 5.66147 17.6119 5.8167 17.7162 5.92379C17.7684 5.97731 17.8075 6.01874 17.833 6.04606C17.8408 6.05448 17.8474 6.06156 17.8526 6.06724C17.8559 6.07077 17.8586 6.07375 17.8608 6.07618L17.8668 6.08282L17.8678 6.08382Z" fill="#02AFB6"/>
<path fill-rule="evenodd" clip-rule="evenodd" d="M9.99997 13.7917C8.27408 13.7917 6.87497 12.3926 6.87497 10.6667C6.87497 8.94078 8.27408 7.54167 9.99997 7.54167C11.7259 7.54167 13.125 8.94078 13.125 10.6667C13.125 12.3926 11.7259 13.7917 9.99997 13.7917ZM8.12497 10.6667C8.12497 11.7022 8.96444 12.5417 9.99997 12.5417C11.0355 12.5417 11.875 11.7022 11.875 10.6667C11.875 9.63113 11.0355 8.79167 9.99997 8.79167C8.96444 8.79167 8.12497 9.63113 8.12497 10.6667Z" fill="#02AFB6"/>
<path fill-rule="evenodd" clip-rule="evenodd" d="M4.33691 6.58361C5.81891 5.30495 7.7444 4.20833 9.99998 4.20833C12.2556 4.20833 14.181 5.30495 15.663 6.58361C17.1484 7.86517 18.2455 9.37793 18.8585 10.3278L19.0771 10.6667L18.8585 11.0055C18.2455 11.9554 17.1484 13.4682 15.663 14.7497C14.181 16.0284 12.2556 17.125 9.99998 17.125C7.7444 17.125 5.81891 16.0284 4.33691 14.7497C2.85156 13.4682 1.75441 11.9554 1.14149 11.0055L0.922821 10.6667L1.14149 10.3278C1.75441 9.37793 2.85156 7.86518 4.33691 6.58361ZM2.41597 10.6667C3.01822 11.5553 3.95478 12.7691 5.15348 13.8033C6.51636 14.9792 8.16115 15.875 9.99998 15.875C11.8388 15.875 13.4836 14.9792 14.8465 13.8033C16.0452 12.7691 16.9817 11.5553 17.584 10.6667C16.9817 9.77803 16.0452 8.56427 14.8465 7.53003C13.4836 6.35415 11.8388 5.45833 9.99998 5.45833C8.16115 5.45833 6.51636 6.35415 5.15348 7.53003C3.95478 8.56427 3.01822 9.77803 2.41597 10.6667Z" fill="#02AFB6"/>
</svg>
