<svg width="20" height="22" viewBox="0 0 20 22" fill="none" xmlns="http://www.w3.org/2000/svg">
<path d="M15.9987 10.0585C16.0362 10.1148 16.1299 10.0773 16.1299 10.021C16.2424 9.0085 16.5424 6.21475 18.5299 5.61475C19.1674 5.42725 19.8049 5.87725 19.8799 6.4585C20.0112 7.396 18.9424 9.81476 19.0362 12.0273C19.0549 12.3835 19.6549 16.1523 18.0612 18.3835C16.4674 20.6148 12.6799 22.8835 8.91118 19.4335C6.96118 17.6523 6.96118 16.9398 4.54243 14.446C4.05493 13.9585 2.10493 11.821 1.57993 11.1648C0.886178 10.2835 1.99243 9.12101 2.83618 9.72101C3.22993 10.0023 6.71743 12.9273 6.84868 13.0585C7.11118 13.2835 7.42993 12.9648 7.24243 12.7398C5.10493 9.92726 3.04243 7.396 2.47993 6.421C1.91743 5.446 3.26743 4.396 4.05493 5.23975C4.59868 5.80225 8.62993 10.5085 8.81743 10.7148C9.00493 10.921 9.32368 10.6585 9.21118 10.396C9.07993 10.1523 5.81743 4.471 5.23618 3.17725C4.72993 2.0335 6.41743 0.964755 7.20493 2.146C7.84243 3.0835 11.4049 9.0085 11.5362 9.21476C11.7049 9.51476 12.0799 9.32726 11.9299 8.98976C11.8174 8.74601 9.62368 2.74601 9.45493 2.12726C9.15493 1.03976 10.7112 0.139755 11.4424 1.37725C12.4362 3.08351 14.4049 8.29601 15.9987 10.0585Z" fill="#B22023"/>
<mask id="mask0_57_257" style="mask-type:luminance" maskUnits="userSpaceOnUse" x="1" y="0" width="19" height="22">
<path d="M15.9987 10.0585C16.0362 10.1148 16.1299 10.0773 16.1299 10.021C16.2424 9.0085 16.5424 6.21475 18.5299 5.61475C19.1674 5.42725 19.8049 5.87725 19.8799 6.4585C20.0112 7.396 18.9424 9.81476 19.0362 12.0273C19.0549 12.3835 19.6549 16.1523 18.0612 18.3835C16.4674 20.6148 12.6799 22.8835 8.91118 19.4335C6.96118 17.6523 6.96118 16.9398 4.54243 14.446C4.05493 13.9585 2.10493 11.821 1.57993 11.1648C0.886178 10.2835 1.99243 9.12101 2.83618 9.72101C3.22993 10.0023 6.71743 12.9273 6.84868 13.0585C7.11118 13.2835 7.42993 12.9648 7.24243 12.7398C5.10493 9.92726 3.04243 7.396 2.47993 6.421C1.91743 5.446 3.26743 4.396 4.05493 5.23975C4.59868 5.80225 8.62993 10.5085 8.81743 10.7148C9.00493 10.921 9.32368 10.6585 9.21118 10.396C9.07993 10.1523 5.81743 4.471 5.23618 3.17725C4.72993 2.0335 6.41743 0.964755 7.20493 2.146C7.84243 3.0835 11.4049 9.0085 11.5362 9.21476C11.7049 9.51476 12.0799 9.32726 11.9299 8.98976C11.8174 8.74601 9.62368 2.74601 9.45493 2.12726C9.15493 1.03976 10.7112 0.139755 11.4424 1.37725C12.4362 3.08351 14.4049 8.29601 15.9987 10.0585Z" fill="white"/>
</mask>
<g mask="url(#mask0_57_257)">
<path d="M15.605 10.096C13.28 11.9898 12.2487 14.6898 14.1612 17.5023C14.33 17.746 14.6862 17.521 14.5362 17.2398C13.7487 15.8335 13.1675 13.3023 15.8862 10.6585C16.205 10.8085 16.58 10.4898 16.5987 10.2085C16.805 8.44603 17.0112 6.98353 18.3237 6.15853C18.83 5.83978 19.4862 6.06478 19.5237 6.83353C19.5237 6.83353 19.9362 6.87103 20.105 6.88978C20.1987 6.49603 20.3862 5.78353 20.3862 5.76478C20.3862 5.74603 18.1737 4.92103 18.1737 4.92103L16.2425 6.83353L15.605 10.096ZM11.855 9.32728C12.1175 9.19603 12.3425 8.98978 12.23 8.70853C12.1175 8.40853 10.0362 2.74603 9.905 2.31478C9.6425 1.52728 10.2987 0.908526 10.88 1.17103C11.1987 1.32103 11.3487 0.814776 11.18 0.739776C11.0112 0.664776 10.6175 0.308526 9.83 0.702276C8.42375 1.41478 9.24875 2.98978 9.62375 3.90853C9.99875 4.82728 11.855 9.32728 11.855 9.32728ZM9.13625 10.7335C9.455 10.5085 9.69875 10.321 9.4175 9.87103C9.23 9.57103 6.06125 3.81478 5.7425 3.25228C5.27375 2.44603 6.24875 1.73353 6.7925 2.23978C7.03625 2.46478 7.41125 1.97728 7.22375 1.78978C7.03625 1.60228 6.38 1.05853 5.555 1.60228C4.73 2.14603 4.71125 2.80228 4.82375 3.08353C4.9175 3.36478 9.13625 10.7335 9.13625 10.7335ZM7.26125 13.0398C7.48625 12.7023 7.63625 12.5335 7.3175 12.1023C6.99875 11.671 3.21125 6.72103 3.005 6.43978C2.48 5.74603 3.24875 5.14603 3.62375 5.35228C3.98 5.55853 4.18625 4.97728 3.88625 4.82728C3.58625 4.67728 3.09875 4.50853 2.64875 4.82728C2.19875 5.14603 1.93625 5.80228 2.01125 6.17728C2.0675 6.55228 7.26125 13.0398 7.26125 13.0398Z" fill="#89171A"/>
<path d="M15.905 20.1085C12.8675 21.5523 10.5987 20.4273 9.13622 19.0023C7.46747 17.371 6.67997 15.871 5.57372 14.8585C5.19872 14.5023 2.23622 11.3523 1.87997 10.8085C1.59872 10.3585 2.16122 9.58977 2.77997 10.021C3.17372 10.2835 3.36122 9.72102 3.09872 9.57102C2.83622 9.42102 2.25497 9.10227 1.63622 9.57102C1.01747 10.021 0.998719 10.8273 1.14872 11.0898C1.29872 11.3523 10.4112 21.8148 10.4112 21.8148L14.1237 21.721L16.1112 20.5023L15.905 20.1085Z" fill="#89171A"/>
</g>
<mask id="mask1_57_257" style="mask-type:luminance" maskUnits="userSpaceOnUse" x="1" y="0" width="19" height="22">
<path d="M10.6388 1.29913C10.746 1.33115 10.8833 1.41555 11.0099 1.62823V1.62921C11.4921 2.45716 12.2112 4.1381 13.0431 5.90948C13.8508 7.62927 14.7717 9.44679 15.6281 10.3939V10.3929C15.8112 10.6071 16.0793 10.6083 16.2365 10.556C16.375 10.5098 16.5981 10.3607 16.6241 10.0755L16.6271 10.0765C16.6838 9.56631 16.7822 8.67321 17.0948 7.83917C17.4094 7.00038 17.8985 6.32875 18.671 6.09406C18.9718 6.00565 19.2653 6.18955 19.3575 6.4212L19.3839 6.52277L19.3849 6.52765C19.4045 6.66783 19.3805 6.91835 19.2999 7.31281C19.2219 7.69504 19.1081 8.13664 18.9855 8.64874C18.7761 9.52302 18.5508 10.5649 18.5314 11.6038L18.5363 12.0482L18.5372 12.054C18.5503 12.3003 18.6993 13.2442 18.6534 14.4837C18.6106 15.6412 18.3946 16.9259 17.7823 17.9017L17.6544 18.0931C16.9102 19.135 15.6569 20.1755 14.1779 20.555C12.8221 20.9028 11.228 20.7092 9.57922 19.3519L9.24915 19.0648H9.24817C8.3048 18.203 7.83769 17.6056 7.29895 16.9026C6.81824 16.2755 6.28479 15.5691 5.33508 14.553L4.90149 14.098L4.89563 14.0921L4.30969 13.4749C3.66777 12.7843 2.73687 11.7563 2.22278 11.1556L1.97083 10.8528C1.80415 10.6389 1.84014 10.4016 2.00208 10.223C2.15047 10.0594 2.32921 10.0196 2.48254 10.0911L2.54602 10.1282C2.72407 10.2556 3.67205 11.0377 4.62024 11.8294C5.08817 12.2201 5.54794 12.6064 5.89856 12.9026C6.07395 13.0508 6.22176 13.1768 6.32922 13.2689C6.44652 13.3693 6.49513 13.4124 6.49524 13.4124L6.50891 13.4261L6.52356 13.4378C6.85637 13.7231 7.28337 13.6775 7.54797 13.4407C7.79297 13.2215 7.92127 12.7927 7.63977 12.4368H7.64075C6.57108 11.0294 5.51499 9.68696 4.66614 8.58624C3.91222 7.60863 3.33464 6.8385 3.02747 6.3587L2.91321 6.1712C2.7852 5.94932 2.85161 5.70869 3.06458 5.5462C3.24608 5.40774 3.44961 5.38891 3.61926 5.51691L3.68958 5.58136L3.69543 5.58722C3.95458 5.8553 5.08473 7.15637 6.19153 8.43781C7.28404 9.7027 8.34775 10.9415 8.44739 11.0511C8.58416 11.2015 8.77049 11.2872 8.97083 11.2884C9.15977 11.2894 9.32343 11.2156 9.4425 11.1185C9.67583 10.9281 9.82844 10.5675 9.67102 10.1995L9.66223 10.179L9.65149 10.1585L7.82825 6.93585C7.03144 5.51563 6.20785 4.02159 5.82727 3.25421L5.6925 2.97198C5.57013 2.69174 5.69195 2.39099 5.9845 2.22296C6.12481 2.14243 6.2745 2.11622 6.40344 2.13995C6.49273 2.15641 6.59318 2.20065 6.69153 2.30206L6.78918 2.42316L6.79114 2.42706C7.42799 3.36361 10.9549 9.23181 11.1144 9.48273L11.1154 9.48175C11.3166 9.81494 11.7239 9.97747 12.089 9.78156C12.4157 9.60617 12.52 9.24865 12.4347 8.92316L12.3868 8.78644L12.3839 8.78058L12.3517 8.69855C12.3302 8.6432 12.3011 8.56763 12.2657 8.47394C12.1952 8.28688 12.1002 8.03138 11.9884 7.72882C11.7647 7.12347 11.4752 6.33174 11.1837 5.52863C10.7417 4.31073 10.3054 3.09167 10.0822 2.43878L9.93762 1.99542L9.93665 1.99445L9.91907 1.89484C9.90133 1.6635 10.0409 1.44128 10.2726 1.33331C10.3969 1.27544 10.5255 1.2654 10.6388 1.29913Z" fill="white" stroke="white"/>
</mask>
<g mask="url(#mask1_57_257)">
<path d="M19.4112 5.55851C19.505 5.80226 19.6175 6.23351 19.505 6.81476C19.0737 8.98976 18.3612 10.2648 18.5862 12.6085C18.9987 17.1085 17.4237 20.521 12.005 21.196C11.4612 21.271 11.6112 21.6835 11.8925 21.646C12.0237 21.6273 15.8862 20.9335 15.8862 20.9335C15.8862 20.9335 19.4675 17.8773 19.4675 17.8398C19.4675 17.8023 20.3675 6.13976 20.3675 6.13976L19.4112 5.55851ZM10.0362 0.777258C10.28 0.814758 10.805 1.02101 11.18 1.75226C11.555 2.48351 13.3925 6.70226 13.6362 7.15226C13.88 7.60226 14.8737 9.83351 15.68 10.5085C15.9425 10.7148 16.0737 10.3585 16.0737 10.3585L16.0925 9.77726L11.7425 -0.122742L10.2987 -0.0664917L10.0362 0.777258ZM11.855 9.32726C11.4987 9.49601 11.2362 9.64601 10.9737 9.23351C10.805 8.93351 8.98621 5.82101 6.69871 2.18351C6.51121 1.90226 6.07996 1.65851 5.74246 1.78976C5.40496 1.93976 5.32996 1.50851 5.49871 1.41476C5.66746 1.32101 6.71746 0.739758 7.42996 1.93976C8.14246 3.13976 11.855 9.32726 11.855 9.32726ZM9.13621 10.7335C8.85496 10.9398 8.57371 11.2023 8.21746 10.771C7.87996 10.3585 4.03621 5.78351 3.81121 5.50226C3.58621 5.22101 3.11746 4.97726 2.76121 5.20226C2.51746 5.35226 2.29246 4.90226 2.44246 4.78976C2.59246 4.67726 3.43621 3.92726 3.99871 4.56476C4.56121 5.20226 9.13621 10.7335 9.13621 10.7335ZM7.26121 13.0398C7.01746 13.3023 6.75496 13.4523 6.39871 13.1898C6.04246 12.9273 2.85496 10.246 2.64871 10.0585C2.44246 9.87101 1.84246 9.58976 1.39246 10.0398C1.22371 10.2085 0.923712 9.92726 1.09246 9.75851C1.26121 9.57101 2.17996 8.63351 2.91121 9.25226C3.64246 9.87101 7.26121 13.0398 7.26121 13.0398Z" fill="#89171A"/>
</g>
<path d="M0.492347 14.0523C1.0736 15.7773 1.95485 16.846 3.3986 17.821C3.6611 18.0085 3.5111 18.3835 3.2111 18.2523C1.8611 17.7085 0.361097 16.5085 0.00484701 14.1273C-0.051403 13.8085 0.398597 13.7523 0.492347 14.0523ZM1.61735 13.021C2.1986 14.746 3.07985 15.8148 4.5236 16.7898C4.7861 16.9773 4.6361 17.3523 4.3361 17.221C2.9861 16.6773 1.4861 15.4773 1.12985 13.096C1.09235 12.7773 1.5236 12.721 1.61735 13.021ZM16.0361 5.29603C15.5861 3.53353 14.7611 2.40853 13.3923 1.35853C13.1298 1.17103 13.3173 0.796029 13.6173 0.927279C14.9298 1.54603 16.3548 2.85853 16.5423 5.25853C16.5611 5.57728 16.1111 5.61478 16.0361 5.29603ZM17.2548 4.39603C16.8048 2.63353 15.9798 1.50853 14.6111 0.458529C14.3486 0.271029 14.5361 -0.103971 14.8361 0.0272788C16.1486 0.646029 17.5736 1.95853 17.7611 4.35853C17.7798 4.65853 17.3486 4.69603 17.2548 4.39603Z" fill="#A4A4A4"/>
</svg>
