<svg width="30" height="30" viewBox="0 0 30 30" fill="none" xmlns="http://www.w3.org/2000/svg">
<path d="M15 26.25C20.2407 26.25 24.6445 22.6665 25.8946 17.8162M15 26.25C9.75928 26.25 5.35552 22.6665 4.10537 17.8162M15 26.25C18.1066 26.25 20.625 21.2132 20.625 15C20.625 8.7868 18.1066 3.75 15 3.75M15 26.25C11.8934 26.25 9.375 21.2132 9.375 15C9.375 8.7868 11.8934 3.75 15 3.75M15 3.75C19.2065 3.75 22.8738 6.05867 24.8038 9.47806M15 3.75C10.7935 3.75 7.12624 6.05867 5.19616 9.47806M24.8038 9.47806C22.1747 11.7505 18.7478 13.125 15 13.125C11.2522 13.125 7.82534 11.7505 5.19616 9.47806M24.8038 9.47806C25.7246 11.1093 26.25 12.9933 26.25 15C26.25 15.9725 26.1266 16.9161 25.8946 17.8162M25.8946 17.8162C22.6667 19.6059 18.9524 20.625 15 20.625C11.0476 20.625 7.33328 19.6059 4.10537 17.8162M4.10537 17.8162C3.87339 16.9161 3.75 15.9725 3.75 15C3.75 12.9933 4.27541 11.1093 5.19616 9.47806" stroke="#B22023" stroke-width="1.5" stroke-linecap="round" stroke-linejoin="round"/>
</svg>
