<svg width="18" height="22" viewBox="0 0 18 22" fill="none" xmlns="http://www.w3.org/2000/svg">
<path d="M11.8678 18.0371C11.8678 18.8229 11.5556 19.5765 11 20.1322C10.4443 20.6878 9.69067 21 8.90491 21C8.11915 21 7.36549 20.6878 6.80984 20.1322C6.25419 19.5765 5.94202 18.8229 5.94202 18.0371" stroke="#030209" stroke-width="1.2" stroke-linecap="round" stroke-linejoin="round"/>
<path d="M2.56527 17.0495C2.08187 16.9469 1.65449 16.6669 1.36744 16.2646C1.08038 15.8623 0.95453 15.3671 1.01471 14.8767L2.00234 6.86698C2.2545 5.22026 3.09278 3.71994 4.363 2.64207C5.63322 1.56419 7.24993 0.98126 8.91577 1.00046C10.5816 0.98126 12.1983 1.56419 13.4684 2.64207C14.7387 3.71994 15.577 5.22026 15.8292 6.86698L16.8168 14.8767C16.8774 15.3658 16.7528 15.8598 16.4678 16.2618C16.1828 16.6638 15.7577 16.9448 15.2761 17.0495C11.0961 18.0317 6.74527 18.0317 2.56527 17.0495Z" stroke="#030209" stroke-width="1.2" stroke-linecap="round" stroke-linejoin="round"/>
</svg>
