<svg width="30" height="30" viewBox="0 0 30 30" fill="none" xmlns="http://www.w3.org/2000/svg">
<path d="M25.3125 17.6874V22.9999C25.3125 24.368 24.3289 25.5449 22.9727 25.7249C20.3643 26.0713 17.703 26.25 15 26.25C12.297 26.25 9.63567 26.0713 7.02731 25.7249C5.67112 25.5449 4.6875 24.368 4.6875 22.9999V17.6874M25.3125 17.6874C25.9024 17.1845 26.25 16.4236 26.25 15.6111V10.8821C26.25 9.53094 25.2901 8.36352 23.9538 8.16357C22.5471 7.95309 21.1244 7.79144 19.6875 7.6804M25.3125 17.6874C25.0705 17.8937 24.7877 18.0566 24.4714 18.1617C21.4941 19.1516 18.3097 19.6875 15 19.6875C11.6904 19.6875 8.50587 19.1516 5.52861 18.1617C5.2123 18.0565 4.92951 17.8937 4.6875 17.6874M4.6875 17.6874C4.0976 17.1845 3.75 16.4236 3.75 15.6111V10.8821C3.75 9.53094 4.70988 8.36352 6.04618 8.16358C7.45291 7.95309 8.87561 7.79144 10.3125 7.6804M19.6875 7.6804V6.5625C19.6875 5.0092 18.4283 3.75 16.875 3.75H13.125C11.5717 3.75 10.3125 5.0092 10.3125 6.5625V7.6804M19.6875 7.6804C18.1407 7.56088 16.5775 7.5 15 7.5C13.4225 7.5 11.8593 7.56088 10.3125 7.6804M15 15.9375H15.0094V15.9469H15V15.9375Z" stroke="#72777A" stroke-width="1.5" stroke-linecap="round" stroke-linejoin="round"/>
</svg>
