<svg width="232" height="232" viewBox="0 0 232 232" fill="none" xmlns="http://www.w3.org/2000/svg">
<path d="M190.574 50.3672C186.537 43.4907 180.886 37.867 173.74 33.2781C149.942 17.9986 117.596 12.5002 89.8027 16.6483C69.9435 19.6179 56.7056 33.1157 48.2376 50.7059C38.2291 71.4931 29.144 92.169 17.7481 112.358C4.6726 135.525 -1.19236 159.616 27.2184 179.596C51.8104 196.898 82.6385 192.407 110.822 191.855C120.162 191.669 129.572 191.98 138.764 193.785C157.027 197.381 174.766 210.146 192.727 198.225C206.383 189.164 214.424 172.037 218.321 156.526C220.641 147.283 222.47 137.084 221.607 127.294C220.679 116.543 215.709 108.451 210.61 99.296C204.183 87.7564 199.181 75.4787 195.715 62.7328C194.563 58.3992 192.834 54.2401 190.574 50.3672Z" fill="#B22023"/>
<path opacity="0.7" d="M190.574 50.3672C186.537 43.4907 180.886 37.867 173.74 33.2781C149.942 17.9986 117.596 12.5002 89.8027 16.6483C69.9435 19.6179 56.7056 33.1157 48.2376 50.7059C38.2291 71.4931 29.144 92.169 17.7481 112.358C4.6726 135.525 -1.19236 159.616 27.2184 179.596C51.8104 196.898 82.6385 192.407 110.822 191.855C120.162 191.669 129.572 191.98 138.764 193.785C157.027 197.381 174.766 210.146 192.727 198.225C206.383 189.164 214.424 172.037 218.321 156.526C220.641 147.283 222.47 137.084 221.607 127.294C220.679 116.543 215.709 108.451 210.61 99.296C204.183 87.7564 199.181 75.4787 195.715 62.7328C194.563 58.3992 192.834 54.2401 190.574 50.3672Z" fill="white"/>
<path d="M217.616 210.34H220.864" stroke="#263238" stroke-miterlimit="10" stroke-linecap="round"/>
<path d="M10.6721 210.34H213.904" stroke="#263238" stroke-miterlimit="10" stroke-linecap="round"/>
<path d="M66.3937 28.1416H21.4136V88.443H66.3937V28.1416Z" stroke="#263238" stroke-width="0.979159" stroke-miterlimit="10" stroke-linecap="round"/>
<path d="M64.5748 30.5776H23.2324V86.007H64.5748V30.5776Z" stroke="#263238" stroke-width="0.979159" stroke-miterlimit="10" stroke-linecap="round"/>
<path d="M55.086 43.2958H32.7212V73.2795H55.086V43.2958Z" stroke="#263238" stroke-width="0.979159" stroke-miterlimit="10" stroke-linecap="round"/>
<path d="M199.998 72.3747H183.609V94.3451H199.998V72.3747Z" stroke="#263238" stroke-width="0.979159" stroke-miterlimit="10" stroke-linecap="round"/>
<path d="M199.339 73.261H184.273V93.4589H199.339V73.261Z" stroke="#263238" stroke-width="0.979159" stroke-miterlimit="10" stroke-linecap="round"/>
<path d="M195.878 77.8963H187.73V88.8235H195.878V77.8963Z" stroke="#263238" stroke-width="0.979159" stroke-miterlimit="10" stroke-linecap="round"/>
<path d="M218.396 57.8561H202.007V79.8265H218.396V57.8561Z" stroke="#263238" stroke-width="0.979159" stroke-miterlimit="10" stroke-linecap="round"/>
<path d="M217.737 58.7424H202.671V78.9403H217.737V58.7424Z" stroke="#263238" stroke-width="0.979159" stroke-miterlimit="10" stroke-linecap="round"/>
<path d="M214.275 63.3777H206.127V74.3049H214.275V63.3777Z" stroke="#263238" stroke-width="0.979159" stroke-miterlimit="10" stroke-linecap="round"/>
<path d="M170.771 27.8493H72.1799V210.489H170.771V27.8493Z" fill="white"/>
<path d="M80.2443 58.7424H164.521C164.852 58.7424 165.169 58.8739 165.403 59.108C165.637 59.3421 165.769 59.6596 165.769 59.9906V172.441C165.769 172.772 165.637 173.089 165.403 173.324C165.169 173.558 164.852 173.689 164.521 173.689H80.2443C79.912 173.689 79.5933 173.557 79.3584 173.322C79.1234 173.087 78.9915 172.769 78.9915 172.436V59.9952C78.9915 59.8307 79.0239 59.6678 79.0868 59.5158C79.1498 59.3638 79.2421 59.2257 79.3584 59.1094C79.4747 58.993 79.6128 58.9008 79.7648 58.8378C79.9168 58.7748 80.0797 58.7424 80.2443 58.7424Z" fill="#B22023" stroke="#263238" stroke-width="0.979159" stroke-miterlimit="10" stroke-linecap="round"/>
<path d="M159.597 97.7509H83.8959C83.6396 97.7509 83.4319 97.9586 83.4319 98.2149V106.678C83.4319 106.934 83.6396 107.142 83.8959 107.142H159.597C159.854 107.142 160.061 106.934 160.061 106.678V98.2149C160.061 97.9586 159.854 97.7509 159.597 97.7509Z" fill="white" stroke="#263238" stroke-width="0.979159" stroke-miterlimit="10" stroke-linecap="round"/>
<path d="M159.597 82.6338H83.8959C83.6396 82.6338 83.4319 82.8415 83.4319 83.0978V91.5612C83.4319 91.8174 83.6396 92.0252 83.8959 92.0252H159.597C159.854 92.0252 160.061 91.8174 160.061 91.5612V83.0978C160.061 82.8415 159.854 82.6338 159.597 82.6338Z" fill="white" stroke="#263238" stroke-width="0.979159" stroke-miterlimit="10" stroke-linecap="round"/>
<path opacity="0.3" d="M160.799 92.8278H93.2595V105.481H160.799V92.8278Z" fill="black"/>
<path d="M159.992 91.9091H92.3408V104.562H159.992V91.9091Z" fill="white" stroke="#263238" stroke-width="0.979159" stroke-miterlimit="10" stroke-linecap="round"/>
<path d="M94.2292 97.1755C94.3003 97.1801 94.3716 97.1801 94.4427 97.1755C94.7211 97.1755 94.9067 97.0271 94.9067 96.6419V93.7419H95.3289V96.6141C95.3289 97.324 94.9716 97.5421 94.5169 97.5421C94.4273 97.5468 94.3375 97.5468 94.2478 97.5421L94.2292 97.1755Z" fill="#263238"/>
<path d="M95.6956 94.656C95.6956 94.076 95.9832 93.7001 96.5679 93.7001C97.1525 93.7001 97.4448 94.076 97.4448 94.656V96.628C97.4448 97.208 97.1572 97.5885 96.5679 97.5885C95.9786 97.5885 95.6956 97.208 95.6956 96.628V94.656ZM96.1178 96.6512C96.1178 96.9992 96.2616 97.2033 96.5818 97.2033C96.902 97.2033 97.0458 96.9992 97.0458 96.6512V94.656C97.0458 94.3126 96.902 94.1038 96.5818 94.1038C96.2616 94.1038 96.1178 94.3126 96.1178 94.656V96.6512Z" fill="#263238"/>
<path d="M98.2753 95.8485V97.5653H97.8484V93.7512H98.2753V95.468H99.2033V93.7512H99.6301V97.5653H99.2033V95.8485H98.2753Z" fill="#263238"/>
<path d="M100.452 97.5653H100.071V93.7512H100.609L101.491 96.5074V93.7512H101.867V97.5653H101.426L100.452 94.4797V97.5653Z" fill="#263238"/>
<path d="M104.799 94.656V94.7581H104.4V94.656C104.4 94.3127 104.27 94.1131 103.964 94.1131C103.658 94.1131 103.528 94.3127 103.528 94.6514C103.528 95.5098 104.808 95.5794 104.808 96.6651C104.808 97.2405 104.535 97.5931 103.95 97.5931C103.365 97.5931 103.092 97.2173 103.092 96.6651V96.4471H103.472V96.6837C103.472 97.0271 103.616 97.2312 103.936 97.2312C104.256 97.2312 104.4 97.0271 104.4 96.6837C104.4 95.8346 103.124 95.7557 103.124 94.6792C103.124 94.0899 103.398 93.728 103.969 93.728C104.539 93.728 104.799 94.0899 104.799 94.656Z" fill="#263238"/>
<path d="M106.581 97.5607H106.173L105.542 94.5261V97.5653H105.17V93.7512H105.764L106.391 96.7951L106.999 93.7512H107.592V97.5653H107.184V94.4983L106.581 97.5607Z" fill="#263238"/>
<path d="M108.455 93.7512V97.5653H108.029V93.7512H108.455Z" fill="#263238"/>
<path d="M109.439 97.5653V94.1363H108.739V93.7512H110.562V94.1363H109.861V97.5653H109.439Z" fill="#263238"/>
<path d="M111.276 95.8485V97.5653H110.854V93.7512H111.276V95.468H112.204V93.7512H112.631V97.5653H112.204V95.8485H111.276Z" fill="#263238"/>
<path d="M159.597 112.293H83.8959C83.6396 112.293 83.4319 112.5 83.4319 112.757V121.22C83.4319 121.476 83.6396 121.684 83.8959 121.684H159.597C159.854 121.684 160.061 121.476 160.061 121.22V112.757C160.061 112.5 159.854 112.293 159.597 112.293Z" fill="white" stroke="#263238" stroke-width="0.979159" stroke-miterlimit="10" stroke-linecap="round"/>
<path d="M94.6236 118.696H94.2432V114.882H94.7814L95.6676 117.638V114.882H96.0481V118.696H95.5841L94.6051 115.61L94.6236 118.696Z" fill="#E5E5E5"/>
<path d="M97.8346 116.571V116.951H96.9066V118.32H98.0527V118.71H96.4844V114.896H98.0527V115.281H96.9066V116.585L97.8346 116.571Z" fill="#E5E5E5"/>
<path d="M99.4539 118.696H98.8739L98.3682 114.882H98.7811L99.2451 118.13L99.672 114.882H100.094L100.512 118.13L100.943 114.882H101.315L100.795 118.696H100.233L99.8669 116.107L99.4539 118.696Z" fill="#E5E5E5"/>
<path d="M103.301 114.882C103.899 114.882 104.154 115.234 104.154 115.81V116.274C104.154 116.877 103.871 117.202 103.268 117.202H102.892V118.71H102.465V114.896L103.301 114.882ZM103.268 116.807C103.584 116.807 103.732 116.664 103.732 116.297V115.791C103.732 115.443 103.607 115.267 103.296 115.267H102.888V116.807H103.268Z" fill="#E5E5E5"/>
<path d="M104.864 117.926L104.72 118.696H104.326L105.059 114.882H105.672L106.405 118.696H105.978L105.829 117.926H104.864ZM104.92 117.559H105.769L105.342 115.36L104.92 117.559Z" fill="#E5E5E5"/>
<path d="M108.367 115.796V115.898H107.964V115.773C107.964 115.429 107.834 115.23 107.527 115.23C107.221 115.23 107.096 115.429 107.096 115.768C107.096 116.622 108.376 116.696 108.376 117.777C108.376 118.357 108.098 118.733 107.513 118.733C106.929 118.733 106.66 118.357 106.66 117.777V117.559H107.054V117.8C107.054 118.144 107.198 118.343 107.518 118.343C107.838 118.343 107.982 118.144 107.982 117.8C107.982 116.951 106.706 116.872 106.706 115.796C106.706 115.207 106.98 114.84 107.551 114.84C108.121 114.84 108.367 115.216 108.367 115.796Z" fill="#E5E5E5"/>
<path d="M110.395 115.796V115.898H109.996V115.773C109.996 115.429 109.861 115.23 109.56 115.23C109.258 115.23 109.124 115.429 109.124 115.768C109.124 116.622 110.404 116.696 110.404 117.777C110.404 118.357 110.126 118.733 109.541 118.733C108.957 118.733 108.688 118.357 108.688 117.777V117.559H109.082V117.8C109.082 118.144 109.226 118.343 109.546 118.343C109.866 118.343 110.01 118.144 110.01 117.8C110.01 116.951 108.734 116.872 108.734 115.796C108.734 115.207 109.008 114.84 109.578 114.84C110.149 114.84 110.395 115.216 110.395 115.796Z" fill="#E5E5E5"/>
<path d="M111.787 118.696H111.202L110.683 114.882H111.096L111.56 118.13L111.986 114.882H112.404L112.826 118.13L113.253 114.882H113.624L113.109 118.696H112.548L112.181 116.107L111.787 118.696Z" fill="#E5E5E5"/>
<path d="M113.921 115.8C113.921 115.216 114.209 114.84 114.794 114.84C115.378 114.84 115.671 115.216 115.671 115.8V117.772C115.671 118.352 115.378 118.733 114.794 118.733C114.209 118.733 113.921 118.352 113.921 117.772V115.8ZM114.339 117.796C114.339 118.144 114.487 118.343 114.803 118.343C115.119 118.343 115.267 118.144 115.267 117.796V115.777C115.267 115.434 115.128 115.23 114.803 115.23C114.478 115.23 114.339 115.434 114.339 115.777V117.796Z" fill="#E5E5E5"/>
<path d="M116.928 114.882C117.527 114.882 117.777 115.183 117.777 115.749V116.06C117.777 116.483 117.629 116.742 117.313 116.844C117.661 116.951 117.777 117.234 117.777 117.643V118.236C117.766 118.395 117.793 118.554 117.856 118.7H117.425C117.365 118.554 117.341 118.395 117.355 118.236V117.638C117.355 117.206 117.151 117.067 116.798 117.067H116.497V118.7H116.074V114.886L116.928 114.882ZM116.817 116.677C117.156 116.677 117.36 116.571 117.36 116.153V115.791C117.36 115.448 117.234 115.267 116.919 115.267H116.501V116.659L116.817 116.677Z" fill="#E5E5E5"/>
<path d="M119.114 114.882C119.707 114.882 119.981 115.239 119.981 115.81V117.731C119.981 118.315 119.707 118.659 119.114 118.659H118.223V114.845L119.114 114.882ZM119.114 118.306C119.42 118.306 119.578 118.116 119.578 117.768V115.805C119.578 115.457 119.429 115.267 119.114 115.267H118.65V118.32L119.114 118.306Z" fill="#E5E5E5"/>
<path d="M94.9994 89.037H94.6189V85.2229H95.1571L96.0387 87.9791V85.2229H96.4146V89.037H95.9738L94.9994 85.9514V89.037Z" fill="#E5E5E5"/>
<path d="M97.2824 88.2667L97.1339 89.037H96.7441L97.4726 85.2229H98.0897L98.8182 89.037H98.396L98.2475 88.2667H97.2824ZM97.3381 87.9002H98.1872L97.7557 85.7008L97.3381 87.9002Z" fill="#E5E5E5"/>
<path d="M100.558 89.0277H100.15L99.5189 85.9931V89.037H99.1477V85.2229H99.7602L100.387 88.2667L100.99 85.2229H101.584V89.037H101.152V85.9653L100.558 89.0277Z" fill="#E5E5E5"/>
<path d="M103.361 86.9119V87.2923H102.433V88.6472H103.579V89.037H102.01V85.2229H103.579V85.608H102.433V86.9119H103.361Z" fill="#E5E5E5"/>
<path d="M105.597 70.6023V70.9456H105.193V70.5791C105.193 70.2357 105.054 70.0269 104.729 70.0269C104.405 70.0269 104.265 70.2357 104.265 70.5791V72.5928C104.265 72.9362 104.409 73.145 104.729 73.145C105.05 73.145 105.193 72.9362 105.193 72.5928V72.101H105.597V72.565C105.597 73.1403 105.323 73.5208 104.734 73.5208C104.145 73.5208 103.88 73.1403 103.88 72.565V70.593C103.88 70.013 104.149 69.6325 104.734 69.6325C105.319 69.6325 105.597 70.0223 105.597 70.6023Z" fill="#263238"/>
<path d="M106.832 69.6789C107.435 69.6789 107.685 69.9851 107.685 70.5512V70.8621C107.711 71.0264 107.679 71.1946 107.595 71.3377C107.51 71.4809 107.378 71.59 107.221 71.6463C107.569 71.7483 107.685 72.0314 107.685 72.4397V73.0383C107.671 73.1967 107.697 73.3561 107.76 73.5023H107.328C107.269 73.355 107.245 73.1962 107.258 73.0383V72.4304C107.258 71.9989 107.059 71.8643 106.702 71.8643H106.405V73.493H105.978V69.6789H106.832ZM106.725 71.4792C107.064 71.4792 107.263 71.3679 107.263 70.9549V70.5883C107.263 70.245 107.138 70.064 106.822 70.064H106.409V71.4792H106.725Z" fill="#263238"/>
<path d="M109.504 71.3679V71.7483H108.576V73.1079H109.718V73.493H108.112V69.6789H109.68V70.064H108.576V71.3679H109.504Z" fill="#263238"/>
<path d="M110.525 72.7274L110.376 73.493H109.968L110.697 69.6789H111.314L112.042 73.493H111.62L111.471 72.7274H110.525ZM110.581 72.3608H111.43L110.998 70.1568L110.581 72.3608Z" fill="#263238"/>
<path d="M112.752 73.493V70.064H112.052V69.6789H113.875V70.064H113.17V73.493H112.752Z" fill="#263238"/>
<path d="M115.508 71.3679V71.7483H114.58V73.1079H115.726V73.493H114.144V69.6789H115.717V70.064H114.571V71.3679H115.508Z" fill="#263238"/>
<path d="M117.633 72.1242L116.826 69.6789H117.267L117.861 71.5349L118.464 69.6789H118.863L118.056 72.1242V73.493H117.633V72.1242Z" fill="#263238"/>
<path d="M119.058 70.6023C119.058 70.0176 119.346 69.6418 119.93 69.6418C120.515 69.6418 120.807 70.0176 120.807 70.6023V72.5743C120.825 72.6972 120.816 72.8227 120.779 72.9415C120.743 73.0603 120.68 73.1695 120.596 73.2611C120.512 73.3527 120.409 73.4243 120.294 73.4709C120.178 73.5174 120.054 73.5377 119.93 73.5301C119.346 73.5301 119.058 73.1496 119.058 72.5743V70.6023ZM119.475 72.5928C119.475 72.9455 119.624 73.145 119.939 73.145C120.255 73.145 120.403 72.9455 120.403 72.5928V70.5791C120.403 70.2357 120.264 70.0269 119.939 70.0269C119.615 70.0269 119.475 70.2357 119.475 70.5791V72.5928Z" fill="#263238"/>
<path d="M121.615 72.5928C121.615 72.9362 121.749 73.145 122.079 73.145C122.408 73.145 122.519 72.9362 122.519 72.5928V69.6789H122.918V72.5743C122.918 73.1496 122.649 73.5394 122.065 73.5394C121.48 73.5394 121.211 73.1496 121.211 72.5743V69.6789H121.633L121.615 72.5928Z" fill="#263238"/>
<path d="M124.171 69.6789C124.77 69.6789 125.02 69.9851 125.02 70.5512V70.8621C125.046 71.0264 125.014 71.1946 124.929 71.3377C124.845 71.4809 124.713 71.59 124.556 71.6463C124.904 71.7483 125.02 72.0314 125.02 72.4397V73.0383C125.006 73.1971 125.033 73.3569 125.099 73.5023H124.668C124.607 73.3557 124.583 73.1963 124.598 73.0383V72.4304C124.598 71.9989 124.394 71.8643 124.041 71.8643H123.74V73.493H123.317V69.6789H124.171ZM124.06 71.4792C124.399 71.4792 124.603 71.3679 124.603 70.9549V70.5883C124.603 70.245 124.477 70.064 124.139 70.064H123.726V71.4792H124.06Z" fill="#263238"/>
<path d="M126.746 72.7274L126.598 73.493H126.208L126.941 69.6789H127.554L128.287 73.493H127.86L127.711 72.7274H126.746ZM126.797 72.3608H127.646L127.22 70.1568L126.797 72.3608Z" fill="#263238"/>
<path d="M130.291 70.6023V70.9456H129.888V70.5791C129.888 70.2357 129.753 70.0269 129.424 70.0269C129.094 70.0269 128.96 70.2357 128.96 70.5791V72.5928C128.96 72.9362 129.099 73.145 129.424 73.145C129.748 73.145 129.888 72.9362 129.888 72.5928V72.101H130.291V72.565C130.291 73.1403 130.022 73.5208 129.433 73.5208C128.844 73.5208 128.574 73.1403 128.574 72.565V70.593C128.574 70.013 128.848 69.6325 129.433 69.6325C130.018 69.6325 130.291 70.0223 130.291 70.6023Z" fill="#263238"/>
<path d="M132.365 70.6023V70.9456H131.962V70.5791C131.962 70.2357 131.823 70.0269 131.498 70.0269C131.173 70.0269 131.034 70.2357 131.034 70.5791V72.5928C131.034 72.9362 131.178 73.145 131.498 73.145C131.818 73.145 131.962 72.9362 131.962 72.5928V72.101H132.365V72.565C132.365 73.1403 132.092 73.5208 131.502 73.5208C130.913 73.5208 130.649 73.1403 130.649 72.565V70.593C130.649 70.013 130.922 69.6325 131.502 69.6325C132.082 69.6325 132.365 70.0223 132.365 70.6023Z" fill="#263238"/>
<path d="M132.704 70.6023C132.704 70.0176 132.997 69.6418 133.577 69.6418C134.157 69.6418 134.453 70.0176 134.453 70.6023V72.5743C134.462 72.6945 134.446 72.8152 134.406 72.9289C134.366 73.0426 134.303 73.1469 134.221 73.2352C134.139 73.3234 134.04 73.3938 133.929 73.442C133.819 73.4901 133.699 73.515 133.579 73.515C133.458 73.515 133.339 73.4901 133.229 73.442C133.118 73.3938 133.019 73.3234 132.937 73.2352C132.855 73.1469 132.792 73.0426 132.752 72.9289C132.712 72.8152 132.695 72.6945 132.704 72.5743V70.6023ZM133.126 72.5928C133.126 72.9455 133.27 73.145 133.59 73.145C133.911 73.145 134.054 72.9455 134.054 72.5928V70.5791C134.054 70.2357 133.911 70.0269 133.59 70.0269C133.27 70.0269 133.126 70.2357 133.126 70.5791V72.5928Z" fill="#263238"/>
<path d="M135.275 72.5928C135.275 72.9362 135.414 73.145 135.739 73.145C136.064 73.145 136.18 72.9362 136.18 72.5928V69.6789H136.574V72.5743C136.574 73.1496 136.309 73.5394 135.72 73.5394C135.131 73.5394 134.871 73.1496 134.871 72.5743V69.6789H135.289L135.275 72.5928Z" fill="#263238"/>
<path d="M137.344 73.493H136.964V69.6789H137.502L138.383 72.4351V69.6789H138.759V73.493H138.319L137.344 70.4074V73.493Z" fill="#263238"/>
<path d="M139.762 73.493V70.064H139.061V69.6789H140.885V70.064H140.184V73.493H139.762Z" fill="#263238"/>
<path d="M132.166 142.072H112.604C111.994 142.072 111.499 142.567 111.499 143.176V150.146C111.499 150.756 111.994 151.25 112.604 151.25H132.166C132.776 151.25 133.27 150.756 133.27 150.146V143.176C133.27 142.567 132.776 142.072 132.166 142.072Z" fill="#263238" stroke="#263238" stroke-width="0.979159" stroke-miterlimit="10" stroke-linecap="round"/>
<path d="M120.204 145.831V145.933H119.8V145.807C119.8 145.464 119.67 145.26 119.364 145.26C119.058 145.26 118.928 145.464 118.928 145.803C118.928 146.657 120.209 146.731 120.209 147.812C120.209 148.392 119.93 148.768 119.345 148.768C118.761 148.768 118.492 148.392 118.492 147.812V147.594H118.891V147.835C118.891 148.178 119.03 148.378 119.355 148.378C119.68 148.378 119.819 148.178 119.819 147.835C119.819 146.986 118.547 146.907 118.547 145.831C118.547 145.241 118.817 144.875 119.392 144.875C119.967 144.875 120.204 145.232 120.204 145.831Z" fill="white"/>
<path d="M121.011 147.96L120.863 148.726H120.473L121.202 144.912H121.819L122.547 148.726H122.12L121.976 147.96H121.011ZM121.067 147.594H121.916L121.485 145.394L121.067 147.594Z" fill="white"/>
<path d="M123.067 144.912L123.689 148.229L124.301 144.912H124.695L123.981 148.726H123.354L122.635 144.912H123.067Z" fill="white"/>
<path d="M126.38 146.624V147.009H125.452V148.364H126.598V148.749H125.03V144.935H126.598V145.325H125.452V146.624H126.38Z" fill="white"/>
<path d="M123.522 65.3358C123.522 65.0706 123.443 64.8114 123.296 64.5908C123.148 64.3703 122.939 64.1984 122.694 64.0969C122.449 63.9955 122.179 63.9689 121.919 64.0206C121.659 64.0724 121.42 64.2001 121.232 64.3876C121.045 64.5752 120.917 64.8141 120.865 65.0742C120.814 65.3343 120.84 65.604 120.942 65.849C121.043 66.094 121.215 66.3035 121.436 66.4508C121.656 66.5982 121.915 66.6768 122.181 66.6768C122.357 66.6774 122.531 66.6431 122.694 66.576C122.857 66.5088 123.005 66.41 123.13 66.2854C123.255 66.1608 123.354 66.0127 123.421 65.8497C123.488 65.6868 123.522 65.5121 123.522 65.3358Z" fill="#263238"/>
<path d="M92.3408 82.6709V91.9091" stroke="#263238" stroke-width="0.979159" stroke-miterlimit="10" stroke-linecap="round"/>
<path d="M92.3408 97.6674V106.906" stroke="#263238" stroke-width="0.979159" stroke-miterlimit="10" stroke-linecap="round"/>
<path d="M92.3408 112.358V121.591" stroke="#263238" stroke-width="0.979159" stroke-miterlimit="10" stroke-linecap="round"/>
<path d="M85.2832 89.1854H89.9882L88.5962 87.8584C88.4498 87.7178 88.276 87.6088 88.0858 87.5382C88.3677 87.4189 88.5996 87.2057 88.7424 86.9349C88.8851 86.6641 88.9298 86.3522 88.8689 86.0522C88.808 85.7522 88.6453 85.4825 88.4083 85.2887C88.1713 85.095 87.8745 84.9891 87.5684 84.9891C87.2623 84.9891 86.9656 85.095 86.7285 85.2887C86.4915 85.4825 86.3288 85.7522 86.2679 86.0522C86.207 86.3522 86.2517 86.6641 86.3944 86.9349C86.5372 87.2057 86.7691 87.4189 87.051 87.5382C86.8081 87.6208 86.5896 87.7627 86.4154 87.9512L85.2832 89.1854Z" fill="white" stroke="#E5E5E5" stroke-width="0.979159" stroke-miterlimit="10"/>
<path d="M89.5335 116.844H85.9746V119.828H89.5335V116.844Z" fill="white" stroke="#E5E5E5" stroke-width="0.979159" stroke-miterlimit="10"/>
<path d="M85.9746 116.844V116.097C85.9746 115.864 86.0206 115.633 86.1099 115.417C86.1992 115.202 86.3301 115.006 86.4951 114.841C86.6601 114.676 86.8561 114.545 87.0717 114.456C87.2873 114.366 87.5184 114.32 87.7517 114.32C87.9851 114.32 88.2162 114.366 88.4318 114.456C88.6474 114.545 88.8433 114.676 89.0083 114.841C89.1734 115.006 89.3043 115.202 89.3936 115.417C89.4829 115.633 89.5289 115.864 89.5289 116.097V116.844" stroke="#E5E5E5" stroke-width="0.979159" stroke-miterlimit="10"/>
<path d="M90.2157 101.124H85.6267V104.224H90.2157V101.124Z" fill="white" stroke="#E5E5E5" stroke-width="0.979159" stroke-miterlimit="10"/>
<path d="M85.6267 101.124L87.9235 102.674L90.2203 101.124" stroke="#E5E5E5" stroke-width="0.979159" stroke-miterlimit="10"/>
<path d="M89.8443 130.013H86.123V133.734H89.8443V130.013Z" stroke="#263238" stroke-width="0.979159" stroke-miterlimit="10" stroke-linecap="round"/>
<path d="M92.7676 130.412H159.347" stroke="#263238" stroke-width="0.979159" stroke-miterlimit="10" stroke-linecap="round"/>
<path d="M92.7676 133.335H141.539" stroke="#263238" stroke-width="0.979159" stroke-miterlimit="10" stroke-linecap="round"/>
<path opacity="0.15" d="M171.3 211.05V122.635L93.8347 211.05H171.3Z" fill="#080808"/>
<path d="M99.2776 42.3911H77.9336V48.4509H99.2776V42.3911Z" fill="#263238"/>
<path d="M121.749 42.3911H100.405V48.4509H121.749V42.3911Z" fill="#263238"/>
<path d="M144.216 42.3911H122.872V48.4509H144.216V42.3911Z" fill="#263238"/>
<path d="M166.683 42.3911H145.339V48.4509H166.683V42.3911Z" fill="#263238"/>
<path d="M82.5271 45.653H94.0343" stroke="white" stroke-width="0.979159" stroke-miterlimit="10" stroke-linecap="round"/>
<path d="M105.036 45.653H116.543" stroke="white" stroke-width="0.979159" stroke-miterlimit="10" stroke-linecap="round"/>
<path d="M127.419 45.653H138.931" stroke="white" stroke-width="0.979159" stroke-miterlimit="10" stroke-linecap="round"/>
<path d="M150.257 45.653H161.769" stroke="white" stroke-width="0.979159" stroke-miterlimit="10" stroke-linecap="round"/>
<path d="M165.648 18.56H79.1121C78.0811 18.56 77.0602 18.7631 76.1077 19.1576C75.1552 19.5522 74.2897 20.1304 73.5607 20.8595C72.8317 21.5885 72.2534 22.454 71.8588 23.4065C71.4643 24.359 71.2612 25.3799 71.2612 26.4109V210.229C71.2612 211.26 71.4643 212.281 71.8588 213.234C72.2534 214.186 72.8317 215.052 73.5607 215.781C74.2897 216.51 75.1552 217.088 76.1077 217.482C77.0602 217.877 78.0811 218.08 79.1121 218.08H165.648C166.679 218.081 167.701 217.878 168.654 217.484C169.607 217.089 170.473 216.511 171.203 215.782C171.932 215.053 172.511 214.187 172.906 213.235C173.3 212.282 173.504 211.26 173.504 210.229V26.4155C173.504 25.3837 173.301 24.362 172.907 23.4086C172.512 22.4553 171.934 21.589 171.204 20.8595C170.475 20.1299 169.608 19.5513 168.655 19.1567C167.702 18.7622 166.68 18.5594 165.648 18.56ZM168.956 206.234H75.8084V32.1134H168.956V206.234Z" fill="#263238"/>
<path d="M165.783 33.9184H158.062V38.1547H165.783V33.9184Z" stroke="#263238" stroke-width="0.803955" stroke-linecap="round" stroke-linejoin="round"/>
<path d="M164.084 33.9184H158.062V38.1547H164.084V33.9184Z" fill="#263238" stroke="#263238" stroke-width="0.709962" stroke-linecap="round" stroke-linejoin="round"/>
<path d="M166.855 35.1016H165.769V36.9669H166.855V35.1016Z" fill="#263238" stroke="#263238" stroke-width="0.709962" stroke-linecap="round" stroke-linejoin="round"/>
<path d="M79.321 35.2315H77.9058V37.6582H79.321V35.2315Z" fill="#263238" stroke="#263238" stroke-width="0.864681" stroke-linecap="round" stroke-linejoin="round"/>
<path d="M81.548 34.3777H80.1328V37.6582H81.548V34.3777Z" fill="#263238" stroke="#263238" stroke-width="0.864681" stroke-linecap="round" stroke-linejoin="round"/>
<path d="M83.7707 33.3708H82.3555V37.6582H83.7707V33.3708Z" fill="#263238" stroke="#263238" stroke-width="0.864681" stroke-linecap="round" stroke-linejoin="round"/>
<path d="M202.944 131.465C202.944 131.465 196.55 127.916 196.077 135.966C195.604 144.016 194.416 196.379 194.416 196.379" stroke="#263238" stroke-width="1.95832" stroke-miterlimit="10" stroke-linecap="round"/>
<path d="M192.755 136.676C192.755 136.676 197.97 148.276 195.604 195.669" stroke="#263238" stroke-width="1.95832" stroke-miterlimit="10" stroke-linecap="round"/>
<path d="M197.877 133.089C197.877 133.089 195.432 134.657 194.04 132.862C192.648 131.066 194.968 127.781 192.927 126.366C190.885 124.951 187.317 127.136 187.317 127.136C187.317 127.136 190.05 127.943 189.962 129.433C189.873 130.922 188.57 131.493 188.384 130.825C188.198 130.157 186.904 126.885 184.672 128.254C184.032 128.632 183.475 129.136 183.035 129.735C182.595 130.334 182.281 131.015 182.111 131.739C182.111 131.739 187.28 131.187 187.595 133.131C187.911 135.075 185.475 132.788 183.34 132.667C181.206 132.546 179.266 132.857 179.401 134.147C179.451 135.289 179.384 136.433 179.201 137.562C180.366 136.593 181.839 136.072 183.354 136.096C185.702 136.23 185.614 137.724 183.479 137.599C181.345 137.474 179.517 139.506 179.517 139.506C179.517 139.506 181.456 142.828 183.93 144.476C186.403 146.123 187.294 145.529 187.581 144.262C187.869 142.995 187.205 139.743 188.699 139.831C190.194 139.919 186.226 145.464 188.133 145.793C190.04 146.123 191.572 145.566 192.073 144.313L192.574 143.056C192.574 143.056 191.91 139.808 192.198 138.541C192.486 137.274 192.838 138.578 193.177 140.095C193.516 141.613 193.729 145.264 194.379 145.093C195.028 144.921 197.116 142.258 197.604 141.214C198.091 140.17 194.857 136.987 194.894 136.346C194.931 135.706 197.432 136.922 197.817 137.59C198.099 138.09 198.355 138.604 198.583 139.13C198.583 139.13 200.142 138.156 200.105 135.154C200.068 132.152 197.877 133.089 197.877 133.089Z" fill="#B22023"/>
<path opacity="0.3" d="M197.877 133.089C197.877 133.089 195.432 134.657 194.04 132.862C192.648 131.066 194.968 127.781 192.927 126.366C190.885 124.951 187.317 127.136 187.317 127.136C187.317 127.136 190.05 127.943 189.962 129.433C189.873 130.922 188.57 131.493 188.384 130.825C188.198 130.157 186.904 126.885 184.672 128.254C184.032 128.632 183.475 129.136 183.035 129.735C182.595 130.334 182.281 131.015 182.111 131.739C182.111 131.739 187.28 131.187 187.595 133.131C187.911 135.075 185.475 132.788 183.34 132.667C181.206 132.546 179.266 132.857 179.401 134.147C179.451 135.289 179.384 136.433 179.201 137.562C180.366 136.593 181.839 136.072 183.354 136.096C185.702 136.23 185.614 137.724 183.479 137.599C181.345 137.474 179.517 139.506 179.517 139.506C179.517 139.506 181.456 142.828 183.93 144.476C186.403 146.123 187.294 145.529 187.581 144.262C187.869 142.995 187.205 139.743 188.699 139.831C190.194 139.919 186.226 145.464 188.133 145.793C190.04 146.123 191.572 145.566 192.073 144.313L192.574 143.056C192.574 143.056 191.91 139.808 192.198 138.541C192.486 137.274 192.838 138.578 193.177 140.095C193.516 141.613 193.729 145.264 194.379 145.093C195.028 144.921 197.116 142.258 197.604 141.214C198.091 140.17 194.857 136.987 194.894 136.346C194.931 135.706 197.432 136.922 197.817 137.59C198.099 138.09 198.355 138.604 198.583 139.13C198.583 139.13 200.142 138.156 200.105 135.154C200.068 132.152 197.877 133.089 197.877 133.089Z" fill="#263238"/>
<path d="M185.475 140.128C187.071 138.156 189.423 135.488 191.395 134.212" stroke="#263238" stroke-width="0.979159" stroke-miterlimit="10" stroke-linecap="round"/>
<path d="M183.628 142.522C183.628 142.522 184.036 141.951 184.7 141.098" stroke="#263238" stroke-width="0.979159" stroke-miterlimit="10" stroke-linecap="round"/>
<path d="M192.435 134.695C192.435 134.695 194.806 138.045 195.219 141.492" stroke="#263238" stroke-width="0.979159" stroke-miterlimit="10" stroke-linecap="round"/>
<path d="M189.748 136.676C189.748 136.676 190.416 136.286 190.161 140.55" stroke="#263238" stroke-width="0.979159" stroke-miterlimit="10" stroke-linecap="round"/>
<path d="M191.479 132.704C191.479 132.704 192.839 131.502 192.124 129.108" stroke="#263238" stroke-width="0.979159" stroke-miterlimit="10" stroke-linecap="round"/>
<path d="M189.651 134.741L188.686 132.973" stroke="#263238" stroke-width="0.979159" stroke-miterlimit="10" stroke-linecap="round"/>
<path d="M187.618 136.551C187.618 136.551 184.542 134.231 182.626 134.115" stroke="#263238" stroke-width="0.979159" stroke-miterlimit="10" stroke-linecap="round"/>
<path d="M206.601 126.769C206.601 126.769 206.503 130.287 203.756 130.481C201.009 130.676 199.311 126.073 196.504 127.173C193.697 128.273 193.418 133.293 193.418 133.293C193.418 133.293 196.086 131.103 197.525 132.207C198.963 133.312 198.624 135.019 197.85 134.75C197.075 134.481 192.899 133.544 192.746 136.699C192.688 137.598 192.813 138.499 193.113 139.348C193.413 140.197 193.881 140.977 194.49 141.641C194.49 141.641 197.464 136.073 199.622 137.103C201.78 138.133 197.84 138.996 196.258 141.042C194.676 143.088 193.669 145.255 195.056 145.998C196.231 146.726 197.329 147.571 198.332 148.522C198.332 148.522 197.956 145.622 199.696 143.367C201.436 141.112 202.87 142.216 201.288 144.267C199.706 146.318 200.494 149.533 200.494 149.533C200.494 149.533 205.134 149.853 208.48 148.503C211.825 147.153 211.825 145.854 210.753 144.703C209.682 143.552 205.979 141.998 207.083 140.564C208.187 139.13 211.036 146.879 212.651 145.204C214.266 143.529 214.767 141.608 213.853 140.249L212.925 138.889C212.925 138.889 209.213 137.339 208.146 136.189C207.079 135.038 208.61 135.576 210.373 136.267C212.136 136.959 215.941 139.242 216.191 138.467C216.442 137.692 215.217 133.799 214.507 132.597C213.797 131.395 208.406 132.467 207.788 131.989C207.171 131.511 210.108 129.85 211.036 129.911C211.731 129.971 212.421 130.067 213.106 130.198C213.106 130.198 213.185 127.976 210.159 125.967C207.134 123.958 206.601 126.769 206.601 126.769Z" fill="#B22023"/>
<path opacity="0.2" d="M206.601 126.769C206.601 126.769 206.503 130.287 203.756 130.481C201.009 130.676 199.311 126.073 196.504 127.173C193.697 128.273 193.418 133.293 193.418 133.293C193.418 133.293 196.086 131.103 197.525 132.207C198.963 133.312 198.624 135.019 197.85 134.75C197.075 134.481 192.899 133.544 192.746 136.699C192.688 137.598 192.813 138.499 193.113 139.348C193.413 140.197 193.881 140.977 194.49 141.641C194.49 141.641 197.464 136.073 199.622 137.103C201.78 138.133 197.84 138.996 196.258 141.042C194.676 143.088 193.669 145.255 195.056 145.998C196.231 146.726 197.329 147.571 198.332 148.522C198.332 148.522 197.956 145.622 199.696 143.367C201.436 141.112 202.87 142.216 201.288 144.267C199.706 146.318 200.494 149.533 200.494 149.533C200.494 149.533 205.134 149.853 208.48 148.503C211.825 147.153 211.825 145.854 210.753 144.703C209.682 143.552 205.979 141.998 207.083 140.564C208.187 139.13 211.036 146.879 212.651 145.204C214.266 143.529 214.767 141.608 213.853 140.249L212.925 138.889C212.925 138.889 209.213 137.339 208.146 136.189C207.079 135.038 208.61 135.576 210.373 136.267C212.136 136.959 215.941 139.242 216.191 138.467C216.442 137.692 215.217 133.799 214.507 132.597C213.797 131.395 208.406 132.467 207.788 131.989C207.171 131.511 210.108 129.85 211.036 129.911C211.731 129.971 212.421 130.067 213.106 130.198C213.106 130.198 213.185 127.976 210.159 125.967C207.134 123.958 206.601 126.769 206.601 126.769Z" fill="#263238"/>
<path d="M205.185 143.979C204.299 141.056 203.232 136.88 203.297 134.022" stroke="#263238" stroke-width="0.979159" stroke-miterlimit="10" stroke-linecap="round"/>
<path d="M206.327 147.468C206.327 147.468 206.035 146.67 205.635 145.422" stroke="#263238" stroke-width="0.979159" stroke-miterlimit="10" stroke-linecap="round"/>
<path d="M204.494 133.312C204.494 133.312 209.464 133.224 213.217 135.135" stroke="#263238" stroke-width="0.979159" stroke-miterlimit="10" stroke-linecap="round"/>
<path d="M204.647 137.344C204.647 137.344 204.712 136.416 208.823 139.571" stroke="#263238" stroke-width="0.979159" stroke-miterlimit="10" stroke-linecap="round"/>
<path d="M201.863 132.917C201.863 132.917 201.58 130.737 198.694 129.823" stroke="#263238" stroke-width="0.979159" stroke-miterlimit="10" stroke-linecap="round"/>
<path d="M202.647 136.133L200.216 135.896" stroke="#263238" stroke-width="0.979159" stroke-miterlimit="10" stroke-linecap="round"/>
<path d="M203.07 139.399C203.07 139.399 198.652 140.898 197.228 142.74" stroke="#263238" stroke-width="0.979159" stroke-miterlimit="10" stroke-linecap="round"/>
<path d="M177.123 150.183C177.123 150.183 191.103 159.421 190.862 195.191" stroke="#263238" stroke-width="1.95832" stroke-miterlimit="10" stroke-linecap="round"/>
<path d="M194.356 147.742C194.356 147.742 193.892 151.793 190.727 151.728C187.563 151.663 186.013 146.225 182.668 147.232C179.322 148.239 178.533 154.002 178.533 154.002C178.533 154.002 181.819 151.728 183.373 153.139C184.927 154.549 184.38 156.484 183.512 156.099C182.644 155.714 177.912 154.243 177.443 157.871C177.292 158.903 177.351 159.954 177.617 160.962C177.884 161.971 178.352 162.914 178.993 163.736C178.993 163.736 182.946 157.612 185.345 158.985C187.744 160.358 183.104 160.999 181.09 163.212C179.076 165.425 177.703 167.824 179.234 168.812C180.765 169.801 182.779 172.06 182.779 172.06C182.779 172.06 182.617 168.673 184.835 166.237C187.052 163.801 188.607 165.212 186.588 167.425C184.57 169.638 185.196 173.429 185.196 173.429C185.196 173.429 190.537 174.241 194.504 172.993C198.472 171.745 198.62 170.251 197.488 168.817C196.356 167.383 192.231 165.249 193.641 163.713C195.052 162.177 197.608 171.374 199.645 169.583C201.682 167.792 202.429 165.634 201.501 163.982L200.573 162.326C200.573 162.326 196.439 160.187 195.312 158.758C194.184 157.328 195.92 158.094 197.873 159.059C199.826 160.024 203.998 163.012 204.369 162.149C204.74 161.286 203.682 156.665 202.977 155.213C202.272 153.76 195.947 154.484 195.279 153.881C194.611 153.278 198.142 151.626 199.214 151.788C200.009 151.92 200.795 152.095 201.571 152.313C201.571 152.313 201.873 149.751 198.569 147.153C195.265 144.555 194.356 147.742 194.356 147.742Z" fill="#B22023"/>
<path opacity="0.3" d="M194.356 147.742C194.356 147.742 193.892 151.793 190.727 151.728C187.563 151.663 186.013 146.225 182.668 147.232C179.322 148.239 178.533 154.002 178.533 154.002C178.533 154.002 181.819 151.728 183.373 153.139C184.927 154.549 184.38 156.484 183.512 156.099C182.644 155.714 177.912 154.243 177.443 157.871C177.292 158.903 177.351 159.954 177.617 160.962C177.884 161.971 178.352 162.914 178.993 163.736C178.993 163.736 182.946 157.612 185.345 158.985C187.744 160.358 183.104 160.999 181.09 163.212C179.076 165.425 177.703 167.824 179.234 168.812C180.765 169.801 182.779 172.06 182.779 172.06C182.779 172.06 182.617 168.673 184.835 166.237C187.052 163.801 188.607 165.212 186.588 167.425C184.57 169.638 185.196 173.429 185.196 173.429C185.196 173.429 190.537 174.241 194.504 172.993C198.472 171.745 198.62 170.251 197.488 168.817C196.356 167.383 192.231 165.249 193.641 163.713C195.052 162.177 197.608 171.374 199.645 169.583C201.682 167.792 202.429 165.634 201.501 163.982L200.573 162.326C200.573 162.326 196.439 160.187 195.312 158.758C194.184 157.328 195.92 158.094 197.873 159.059C199.826 160.024 203.998 163.012 204.369 162.149C204.74 161.286 203.682 156.665 202.977 155.213C202.272 153.76 195.947 154.484 195.279 153.881C194.611 153.278 198.142 151.626 199.214 151.788C200.009 151.92 200.795 152.095 201.571 152.313C201.571 152.313 201.873 149.751 198.569 147.153C195.265 144.555 194.356 147.742 194.356 147.742Z" fill="#263238"/>
<path d="M191.099 167.467C190.351 163.991 189.512 159.073 189.86 155.802" stroke="#263238" stroke-width="0.979159" stroke-miterlimit="10" stroke-linecap="round"/>
<path d="M192.096 171.601C192.096 171.601 191.832 170.673 191.488 169.174" stroke="#263238" stroke-width="0.979159" stroke-miterlimit="10" stroke-linecap="round"/>
<path d="M191.312 155.097C191.312 155.097 197.056 155.463 201.204 158.024" stroke="#263238" stroke-width="0.979159" stroke-miterlimit="10" stroke-linecap="round"/>
<path d="M191.108 159.769C191.108 159.769 191.27 158.702 195.701 162.734" stroke="#263238" stroke-width="0.979159" stroke-miterlimit="10" stroke-linecap="round"/>
<path d="M188.31 154.391C188.31 154.391 188.189 151.849 184.946 150.517" stroke="#263238" stroke-width="0.979159" stroke-miterlimit="10" stroke-linecap="round"/>
<path d="M188.913 158.178L186.129 157.672" stroke="#263238" stroke-width="0.979159" stroke-miterlimit="10" stroke-linecap="round"/>
<path d="M189.089 161.987C189.089 161.987 183.851 163.295 182.037 165.291" stroke="#263238" stroke-width="0.979159" stroke-miterlimit="10" stroke-linecap="round"/>
<path d="M182.575 178.375C182.575 178.375 191.576 185.243 192.523 195.432L190.625 161.314" stroke="#263238" stroke-width="1.95832" stroke-miterlimit="10" stroke-linecap="round"/>
<path d="M204.369 173.397C192.523 171.267 192.523 195.432 192.523 195.432" stroke="#263238" stroke-width="1.95832" stroke-miterlimit="10" stroke-linecap="round"/>
<path d="M193.952 195.191C193.952 195.191 187.075 145.232 206.972 145.232" stroke="#263238" stroke-width="1.95832" stroke-miterlimit="10" stroke-linecap="round"/>
<path d="M199.854 171.963C198.235 170.14 194.796 170.14 192.773 174.793C190.75 179.447 192.56 178.64 192.56 178.64C192.56 178.64 196.402 177.429 198.829 176.617C201.255 175.805 204.489 173.787 204.694 174.998C204.898 176.209 203.074 177.429 200.852 177.833C198.629 178.236 192.76 179.856 193.367 181.081C193.975 182.306 195.39 185.934 195.39 185.934C197.124 184.466 198.953 183.114 200.866 181.888C203.496 180.273 205.111 180.881 203.696 182.7C202.281 184.519 198.235 186.542 199.056 188.969C199.877 191.395 204.708 194.416 204.708 194.416C204.708 194.416 205.315 189.358 206.731 187.744C208.146 186.129 208.123 187.943 207.742 190.774C207.54 191.979 207.406 193.195 207.338 194.416L212.999 196.439C212.999 196.439 215.022 193.404 216.034 192.393L217.045 191.381C217.045 191.381 212.596 187.54 212.405 185.113C212.215 182.686 215.44 185.113 216.451 185.516C217.463 185.92 219.082 188.764 219.082 188.764C219.082 188.764 220.094 184.124 220.293 182.496L220.497 180.881C220.497 180.881 216.252 179.262 214.632 179.262C213.013 179.262 212.206 180.473 212.206 178.858C212.206 177.243 213.82 176.227 215.644 176.431C217.291 176.705 218.914 177.11 220.497 177.642C220.497 177.642 221.708 176.631 221.305 173.596C220.901 170.562 219.89 170.566 217.463 171.374C215.036 172.181 213.403 174 211.584 174C209.765 174 210.777 171.773 211.988 171.165C213.199 170.557 216.238 169.346 216.841 169.142C217.444 168.938 213.593 166.112 211.584 165.704C209.575 165.295 206.944 166.724 207.134 168.738C207.538 172.975 201.473 173.782 199.854 171.963Z" fill="#B22023"/>
<path d="M212.874 192.787C212.936 193.406 212.978 194.014 212.999 194.611" stroke="#263238" stroke-width="0.979159" stroke-miterlimit="10" stroke-linecap="round"/>
<path d="M208.8 178.269C210.576 182.274 211.856 186.481 212.609 190.797" stroke="#263238" stroke-width="0.979159" stroke-miterlimit="10" stroke-linecap="round"/>
<path d="M208.081 176.645C207.079 174.487 206.327 173.174 206.327 173.174C207.43 172.653 208.347 171.806 208.953 170.747C209.426 169.79 210.119 168.958 210.976 168.321" stroke="#263238" stroke-width="0.979159" stroke-miterlimit="10" stroke-linecap="round"/>
<path d="M199.246 180.032C199.246 180.032 206.526 176.997 206.526 177.605" stroke="#263238" stroke-width="0.979159" stroke-miterlimit="10" stroke-linecap="round"/>
<path d="M210.573 176.209C210.573 176.209 213.821 174.589 216.642 174.589" stroke="#263238" stroke-width="0.979159" stroke-miterlimit="10" stroke-linecap="round"/>
<path d="M209.362 181.062C207.957 182.214 206.669 183.501 205.515 184.904C204.336 186.294 203.381 187.86 202.685 189.544" stroke="#263238" stroke-width="0.979159" stroke-miterlimit="10" stroke-linecap="round"/>
<path d="M211.584 181.888C211.584 181.888 215.83 180.677 218.057 182.7" stroke="#263238" stroke-width="0.979159" stroke-miterlimit="10" stroke-linecap="round"/>
<path d="M219.277 154.544C217.078 153.241 214.637 153.213 213.449 151.839C212.262 150.466 214.595 149.77 215.848 150.29C217.101 150.809 220.024 152.303 220.558 152.61C221.091 152.916 220.73 148.178 219.709 146.383C218.688 144.587 215.895 143.548 214.503 145.014C211.561 148.104 206.972 144.049 207.283 141.636C207.594 139.223 205.343 136.625 200.504 138.147C195.664 139.669 197.469 140.513 197.469 140.513C197.469 140.513 200.907 142.62 203.107 143.923C205.306 145.227 208.958 146.341 208.174 147.292C207.39 148.243 205.283 147.659 203.534 146.243C201.784 144.828 196.704 141.46 196.184 142.717C195.664 143.975 193.864 147.427 193.864 147.427C196.089 147.776 198.289 148.274 200.448 148.916C203.395 149.844 203.998 151.459 201.696 151.584C199.395 151.709 195.2 149.979 193.91 152.183C192.62 154.387 193.502 160.038 193.502 160.038C193.502 160.038 197.715 157.18 199.868 157.189C202.021 157.199 200.643 158.391 198.239 159.941C197.196 160.578 196.189 161.273 195.223 162.024L197.409 167.625C197.409 167.625 201.023 167.161 202.453 167.263L203.877 167.365C203.877 167.365 203.877 161.486 205.561 159.741C207.246 157.997 207.552 162.033 207.909 163.059C208.267 164.084 207.19 167.17 207.19 167.17C207.19 167.17 211.366 164.882 212.721 163.973L214.076 163.068C214.076 163.068 212.512 158.799 211.45 157.574C210.387 156.349 208.944 156.54 210.164 155.477C211.385 154.415 213.213 154.976 214.252 156.484C215.123 157.908 215.88 159.399 216.516 160.943C216.516 160.943 218.075 161.198 220.103 158.906C222.131 156.614 221.481 155.848 219.277 154.544ZM200.137 161.008C198.518 160.201 202.364 158.581 202.364 158.581C203.78 158.386 201.757 161.825 200.137 161.008ZM202.861 153.459C202.174 153.111 204.253 152.424 204.253 152.424C207.232 153.009 203.552 153.811 202.861 153.468V153.459Z" fill="#B22023"/>
<path d="M200.095 165.138C199.673 165.602 199.242 166.015 198.796 166.432" stroke="#263238" stroke-width="0.979159" stroke-miterlimit="10" stroke-linecap="round"/>
<path d="M208.396 152.549C206.538 156.517 204.2 160.243 201.436 163.643" stroke="#263238" stroke-width="0.979159" stroke-miterlimit="10" stroke-linecap="round"/>
<path d="M209.143 150.935C210.113 148.768 210.61 147.339 210.61 147.339C211.728 147.83 212.97 147.968 214.168 147.733C215.2 147.461 216.282 147.439 217.324 147.668" stroke="#263238" stroke-width="0.979159" stroke-miterlimit="10" stroke-linecap="round"/>
<path d="M200.777 146.499C200.777 146.499 207.839 150.011 207.385 150.406" stroke="#263238" stroke-width="0.979159" stroke-miterlimit="10" stroke-linecap="round"/>
<path d="M211.12 152.535C211.12 152.535 214.461 153.927 216.317 156.052" stroke="#263238" stroke-width="0.979159" stroke-miterlimit="10" stroke-linecap="round"/>
<path d="M206.642 154.8C204.853 154.497 203.038 154.368 201.223 154.415C199.396 154.44 197.584 154.753 195.854 155.343" stroke="#263238" stroke-width="0.979159" stroke-miterlimit="10" stroke-linecap="round"/>
<path d="M207.491 157.008C207.491 157.008 211.203 159.421 211.125 162.428" stroke="#263238" stroke-width="0.979159" stroke-miterlimit="10" stroke-linecap="round"/>
<path d="M187.851 182.57C186.078 181.521 184.138 181.498 183.159 180.389C182.18 179.28 184.087 178.724 185.094 179.141C186.101 179.559 188.44 180.765 188.881 181.025C189.321 181.285 189.02 177.457 188.199 176.014C187.377 174.571 185.127 173.736 184.023 174.914C181.651 177.401 177.958 174.139 178.213 172.195C178.468 170.251 176.65 168.163 172.757 169.388C168.864 170.613 170.316 171.29 170.316 171.29C170.316 171.29 173.1 172.988 174.854 174.032C176.608 175.076 179.559 175.981 178.928 176.747C178.297 177.512 176.608 177.044 175.183 175.902C173.759 174.761 169.685 172.056 169.267 173.063C168.85 174.07 167.383 176.854 167.383 176.854C169.188 177.131 170.972 177.526 172.724 178.037C175.095 178.784 175.578 180.088 173.726 180.185C171.875 180.283 168.511 178.895 167.462 180.649C166.414 182.403 167.133 186.969 167.133 186.969C167.133 186.969 170.525 184.672 172.237 184.677C173.949 184.681 172.859 185.646 170.924 186.895C170.086 187.408 169.278 187.967 168.502 188.57L170.26 193.075C171.605 192.893 172.959 192.797 174.316 192.787L175.466 192.866C175.466 192.866 175.466 188.133 176.821 186.732C178.176 185.331 178.422 188.588 178.71 189.405C178.997 190.221 178.13 192.708 178.13 192.708C178.13 192.708 181.489 190.852 182.579 190.138L183.67 189.409C183.67 189.409 182.412 185.971 181.559 184.992C180.705 184.013 179.54 184.157 180.524 183.303C181.508 182.449 182.974 182.9 183.814 184.111C184.515 185.258 185.125 186.459 185.637 187.702C185.637 187.702 186.89 187.906 188.523 186.059C190.157 184.213 189.623 183.614 187.851 182.57ZM172.446 187.776C171.146 187.127 174.237 185.823 174.237 185.823C175.392 185.66 173.75 188.43 172.446 187.776ZM174.64 181.702C174.084 181.424 175.749 180.867 175.749 180.867C178.176 181.331 175.197 181.981 174.64 181.702Z" fill="#B22023"/>
<path d="M172.413 191.094C172.074 191.451 171.726 191.799 171.369 192.133" stroke="#263238" stroke-width="0.979159" stroke-miterlimit="10" stroke-linecap="round"/>
<path d="M179.104 180.96C177.609 184.153 175.726 187.149 173.499 189.883" stroke="#263238" stroke-width="0.979159" stroke-miterlimit="10" stroke-linecap="round"/>
<path d="M179.693 179.665C180.478 177.921 180.877 176.77 180.877 176.77C181.776 177.164 182.775 177.274 183.739 177.086C184.569 176.867 185.439 176.85 186.278 177.035" stroke="#263238" stroke-width="0.979159" stroke-miterlimit="10" stroke-linecap="round"/>
<path d="M172.961 176.093C172.961 176.093 178.649 178.918 178.278 179.239" stroke="#263238" stroke-width="0.979159" stroke-miterlimit="10" stroke-linecap="round"/>
<path d="M181.271 180.96C181.271 180.96 183.962 182.074 185.447 183.79" stroke="#263238" stroke-width="0.979159" stroke-miterlimit="10" stroke-linecap="round"/>
<path d="M177.684 182.774C176.244 182.529 174.783 182.425 173.323 182.463C171.852 182.48 170.392 182.727 168.998 183.196" stroke="#263238" stroke-width="0.979159" stroke-miterlimit="10" stroke-linecap="round"/>
<path d="M178.366 184.551C178.366 184.551 181.345 186.491 181.289 188.913" stroke="#263238" stroke-width="0.979159" stroke-miterlimit="10" stroke-linecap="round"/>
<path d="M180.626 149.171C180.626 149.171 178.399 150.786 176.984 149.171C175.568 147.557 177.591 144.318 175.568 143.102C173.545 141.887 170.311 144.114 170.311 144.114C170.311 144.114 172.937 144.722 172.937 146.137C172.937 147.552 171.726 148.16 171.545 147.552C171.365 146.944 169.931 143.91 167.908 145.329C167.323 145.722 166.825 146.23 166.442 146.82C166.059 147.411 165.8 148.074 165.681 148.768C165.681 148.768 170.534 147.956 170.942 149.779C171.351 151.603 168.919 149.575 166.896 149.575C164.873 149.575 163.054 149.979 163.254 151.194C163.366 152.274 163.366 153.363 163.254 154.442C164.301 153.463 165.663 152.889 167.096 152.823C169.323 152.823 169.323 154.238 167.3 154.238C165.277 154.238 163.657 156.261 163.657 156.261C163.657 156.261 165.681 159.296 168.107 160.711C170.534 162.126 171.355 161.523 171.545 160.307C171.736 159.092 170.942 156.062 172.357 156.062C173.773 156.062 170.334 161.523 172.153 161.723C173.972 161.922 175.401 161.319 175.796 160.108L176.199 158.892C176.199 158.892 175.387 155.858 175.592 154.647C175.796 153.436 176.199 154.647 176.603 156.062C177.007 157.477 177.41 160.915 178.018 160.702C178.626 160.488 180.445 157.871 180.849 156.86C181.252 155.848 178.018 153.018 178.018 152.41C178.018 151.802 180.445 152.814 180.849 153.422C181.144 153.878 181.415 154.351 181.661 154.837C181.661 154.837 183.076 153.825 182.872 150.995C182.668 148.164 180.626 149.171 180.626 149.171Z" fill="#B22023"/>
<path d="M169.295 156.507C170.687 154.554 172.766 151.9 174.557 150.587" stroke="#263238" stroke-width="0.979159" stroke-miterlimit="10" stroke-linecap="round"/>
<path d="M167.68 158.878C167.68 158.878 168.038 158.317 168.608 157.486" stroke="#263238" stroke-width="0.979159" stroke-miterlimit="10" stroke-linecap="round"/>
<path d="M175.568 150.99C175.568 150.99 177.995 154.025 178.603 157.259" stroke="#263238" stroke-width="0.979159" stroke-miterlimit="10" stroke-linecap="round"/>
<path d="M173.142 153.013C173.142 153.013 173.749 152.61 173.749 156.656" stroke="#263238" stroke-width="0.979159" stroke-miterlimit="10" stroke-linecap="round"/>
<path d="M174.557 149.171C174.557 149.171 175.773 147.956 174.961 145.733" stroke="#263238" stroke-width="0.979159" stroke-miterlimit="10" stroke-linecap="round"/>
<path d="M172.938 151.194L171.926 149.575" stroke="#263238" stroke-width="0.979159" stroke-miterlimit="10" stroke-linecap="round"/>
<path d="M171.119 153.013C171.119 153.013 168.084 150.99 166.265 150.99" stroke="#263238" stroke-width="0.979159" stroke-miterlimit="10" stroke-linecap="round"/>
<path d="M201.051 194.481H185.415V216.985H201.051V194.481Z" fill="#263238" stroke="#263238" stroke-width="1.95832" stroke-miterlimit="10" stroke-linecap="round"/>
<path d="M60.9789 209.009H36.7581V211.171H60.9789V209.009Z" fill="white" stroke="#263238" stroke-width="0.979159" stroke-miterlimit="10" stroke-linecap="round"/>
<path d="M60.9789 198.29H36.7581V200.453H60.9789V198.29Z" fill="white" stroke="#263238" stroke-width="0.979159" stroke-miterlimit="10" stroke-linecap="round"/>
<path d="M36.5539 218.307C36.1921 218.307 35.8451 218.164 35.5892 217.908C35.3334 217.652 35.1897 217.305 35.1897 216.943V197.984C35.1621 194.292 36.3188 190.688 38.4901 187.702C40.6614 184.715 43.7329 182.504 47.2537 181.391C47.7889 181.218 48.3344 181.079 48.887 180.974C49.0631 180.943 49.2434 180.948 49.4178 180.987C49.5921 181.026 49.7571 181.1 49.9031 181.203C50.0492 181.306 50.1735 181.436 50.2691 181.587C50.3646 181.738 50.4295 181.907 50.4599 182.083C50.4904 182.259 50.4859 182.439 50.4466 182.614C50.4074 182.788 50.3342 182.953 50.2312 183.099C50.1283 183.245 49.9975 183.369 49.8465 183.465C49.6954 183.561 49.5271 183.625 49.351 183.656C49.351 183.656 48.8499 183.749 48.0657 183.995C45.0982 184.933 42.5098 186.798 40.6807 189.316C38.8517 191.834 37.8785 194.872 37.9041 197.984V216.943C37.9041 217.303 37.7623 217.647 37.5095 217.903C37.2566 218.158 36.9132 218.304 36.5539 218.307Z" fill="white" stroke="#263238" stroke-width="0.979159" stroke-miterlimit="10" stroke-linecap="round"/>
<path d="M61.8 218.307C61.439 218.306 61.0933 218.162 60.8384 217.906C60.5836 217.65 60.4405 217.304 60.4405 216.943V197.984C60.4661 194.872 59.4929 191.834 57.6639 189.316C55.8348 186.798 53.2464 184.933 50.2789 183.995C49.4948 183.749 48.9983 183.66 48.9936 183.656C48.638 183.594 48.3214 183.394 48.1134 183.099C47.9054 182.804 47.8231 182.439 47.8847 182.083C47.9462 181.727 48.1465 181.411 48.4415 181.203C48.7365 180.995 49.102 180.912 49.4576 180.974C50.0102 181.079 50.5557 181.218 51.0909 181.392C54.6117 182.504 57.6832 184.715 59.8545 187.702C62.0258 190.688 63.1825 194.292 63.1549 197.984V216.943C63.1549 217.303 63.0125 217.649 62.7586 217.905C62.5048 218.16 62.1602 218.305 61.8 218.307Z" fill="white" stroke="#263238" stroke-width="0.979159" stroke-miterlimit="10" stroke-linecap="round"/>
<path d="M47.8152 168.989H51.4297V198.685C51.4297 199.066 51.2782 199.432 51.0084 199.702C50.7387 199.972 50.3728 200.123 49.9913 200.123H49.2489C48.8675 200.123 48.5016 199.972 48.2318 199.702C47.9621 199.432 47.8105 199.066 47.8105 198.685V168.989H47.8152Z" fill="white" stroke="#263238" stroke-width="0.979159" stroke-miterlimit="10" stroke-linecap="round"/>
<path d="M58.682 167.56C52.7606 166.829 46.7719 166.829 40.8505 167.56H31.8953V171.105C31.8953 173.36 39.8993 175.192 49.7685 175.192C59.6378 175.192 67.6372 173.36 67.6372 171.105V167.56H58.682Z" fill="#878787" stroke="#263238" stroke-width="0.979159" stroke-miterlimit="10" stroke-linecap="round"/>
<path d="M49.7685 171.648C59.6371 171.648 67.6372 169.817 67.6372 167.56C67.6372 165.302 59.6371 163.472 49.7685 163.472C39.9 163.472 31.8999 165.302 31.8999 167.56C31.8999 169.817 39.9 171.648 49.7685 171.648Z" fill="#263238" stroke="#263238" stroke-width="0.979159" stroke-miterlimit="10" stroke-linecap="round"/>
<path d="M42.4977 170.172C42.4977 170.172 46.2979 168.989 47.8152 168.989C49.3324 168.989 53.2207 168.822 54.9932 168.905C56.7657 168.989 57.0163 169.072 59.4662 169.072C61.9161 169.072 64.1062 167.639 66.3055 165.193C68.5049 162.748 69.006 158.099 68.1615 155.737C67.3171 153.375 66.8113 151.348 65.2894 150.248C63.7675 149.148 55.8377 148.392 50.0099 148.731C44.182 149.069 39.375 150.081 36.2523 151.348C33.1295 152.614 32.3686 154.303 32.5403 155.482C32.7119 156.66 34.3963 163.834 35.496 166.288C36.5956 168.743 38.4516 169.666 38.8739 169.666C39.2961 169.666 42.4977 170.172 42.4977 170.172Z" fill="white" stroke="#263238" stroke-width="0.979159" stroke-miterlimit="10" stroke-linecap="round"/>
<path d="M53.3042 164.094C53.3042 164.094 54.8215 157.848 58.7887 155.904" stroke="#263238" stroke-width="0.979159" stroke-miterlimit="10" stroke-linecap="round"/>
<path d="M41.5698 154.976C41.5698 154.976 44.8642 156.665 45.4535 160.382" stroke="#263238" stroke-width="0.979159" stroke-miterlimit="10" stroke-linecap="round"/>
<path d="M48.1538 150.081L48.5761 153.12" stroke="#263238" stroke-width="0.979159" stroke-miterlimit="10" stroke-linecap="round"/>
<path d="M50.6874 152.698L50.1816 149.914" stroke="#263238" stroke-width="0.979159" stroke-miterlimit="10" stroke-linecap="round"/>
<path d="M45.8246 99.76C45.8246 99.76 46.5113 102.799 45.7504 103.713C44.9894 104.627 39.9736 106.961 36.4704 108.817C32.9672 110.673 27.5059 112.464 26.0629 116.037C24.6198 119.61 25.0746 129.029 25.0746 131.535C25.0746 134.04 27.0512 145.821 28.2669 146.429C29.4825 147.037 32.596 146.656 32.596 146.656C32.4617 148.019 32.207 149.367 31.835 150.684C31.1529 153.343 31.0741 154.104 31.7608 154.257C32.4475 154.41 32.2898 154.104 37.1571 152.735C42.0245 151.366 48.1725 149.487 53.3971 150.155C58.6217 150.823 63.503 151.979 64.7929 151.979C66.0829 151.979 67.0758 152.354 67.0758 149.775C67.0758 147.195 65.8601 143.464 66.5422 141.423C67.2243 139.381 70.9502 126.454 70.9502 126.454C75.5067 120.468 72.5418 138.124 73.9894 117.564C74.3699 112.172 72.1659 109.736 68.8205 108.446C65.475 107.156 59.7307 105.792 58 104.637C56.2693 103.481 56.8585 100.609 56.8585 100.609L45.8246 99.76Z" fill="#B22023" stroke="#263238" stroke-width="0.979159" stroke-miterlimit="10" stroke-linecap="round"/>
<path d="M54.8633 147.798C54.5368 147.841 54.2061 147.841 53.8796 147.798" stroke="#263238" stroke-width="0.979159" stroke-miterlimit="10" stroke-linecap="round"/>
<path d="M65.8092 135.952C65.8092 135.952 62.3895 144.234 59.1229 146.211C58.1712 146.807 57.1403 147.266 56.0605 147.575" stroke="#263238" stroke-width="0.979159" stroke-miterlimit="10" stroke-linecap="round"/>
<path d="M33.7049 135.024C33.7049 135.024 33.394 122.992 30.9858 116.631" stroke="#263238" stroke-width="0.979159" stroke-miterlimit="10" stroke-linecap="round"/>
<path d="M29.0046 119.448C29.9326 122.366 31.3246 126.138 32.5403 127.493" stroke="#263238" stroke-width="0.979159" stroke-miterlimit="10" stroke-linecap="round"/>
<path d="M27.8818 115.698C27.8818 115.698 28.0674 116.385 28.383 117.434" stroke="#263238" stroke-width="0.979159" stroke-miterlimit="10" stroke-linecap="round"/>
<path d="M27.8865 127.336C29.3388 129.219 31.4686 131.419 33.4545 131.377" stroke="#263238" stroke-width="0.979159" stroke-miterlimit="10" stroke-linecap="round"/>
<path d="M26.0952 124.7C26.0952 124.7 26.4803 125.368 27.1114 126.278" stroke="#263238" stroke-width="0.979159" stroke-miterlimit="10" stroke-linecap="round"/>
<path d="M41.6997 144.508C42.5953 143.914 43.4494 143.26 44.2563 142.55" stroke="#263238" stroke-width="0.979159" stroke-miterlimit="10" stroke-linecap="round"/>
<path d="M35.264 146.819C35.264 146.819 34.8788 147.598 36.0388 147.673C36.6792 147.719 38.7904 146.476 40.7299 145.176" stroke="#263238" stroke-width="0.979159" stroke-miterlimit="10" stroke-linecap="round"/>
<path d="M59.986 105.546C59.2889 105.307 58.6186 104.996 57.9862 104.618C56.2369 103.481 56.8447 100.591 56.8447 100.591L45.8247 99.76C45.8247 99.76 46.5114 102.799 45.7505 103.713C45.247 104.169 44.6853 104.556 44.0801 104.864C44.8874 106.91 48.785 116.362 51.9078 116.023C54.65 115.736 58.4641 108.576 59.986 105.546Z" fill="#D9D9D9" stroke="#263238" stroke-width="0.979159" stroke-miterlimit="10" stroke-linecap="round"/>
<path d="M56.8447 100.609L45.8247 99.76C46.0356 100.711 46.1229 101.686 46.0845 102.66C47.4765 104.27 50.0471 107.124 50.9241 107.527C52.1537 108.098 53.1002 107.527 53.2905 107.244C53.4204 107.054 55.8007 105.17 57.3273 103.996C56.4178 102.66 56.8447 100.609 56.8447 100.609Z" fill="#263238"/>
<path d="M43.5463 89.4407C43.5463 89.4407 42.8642 88.4523 42.3306 89.4407C41.797 90.429 42.3306 92.5541 43.0173 93.8487C43.3517 94.5069 43.7316 95.141 44.1541 95.7464L43.9268 89.5938L43.5463 89.4407Z" fill="#D9D9D9" stroke="#263238" stroke-width="0.979159" stroke-miterlimit="10" stroke-linecap="round"/>
<path d="M60.5658 89.8211C60.5658 89.8211 60.7978 88.4291 61.7815 89.2875C62.7652 90.1459 61.4056 93.3151 61.1736 93.9275C60.9068 94.4521 60.5467 94.9238 60.1111 95.3195V90.7584L60.5658 89.8211Z" fill="#D9D9D9" stroke="#263238" stroke-width="0.979159" stroke-miterlimit="10" stroke-linecap="round"/>
<path d="M43.7738 90.7306C43.7738 90.7306 43.9269 98.1035 44.2378 98.6186C44.5487 99.1336 48.4927 104.238 49.4764 105.226C50.46 106.214 52.1397 106.154 53.2765 105.834C54.4133 105.514 59.0533 100.21 59.4338 99.0733C59.8143 97.9365 60.269 90.0299 60.269 90.0299C60.269 90.0299 60.6495 82.8101 60.269 81.7475C59.8885 80.685 47.277 81.1397 46.0613 81.4459C44.8456 81.7522 44.3863 83.1163 44.5394 84.2531C44.6925 85.3899 43.3237 87.4454 43.3237 87.4454L43.7738 90.7306Z" fill="#D9D9D9" stroke="#263238" stroke-width="0.979159" stroke-miterlimit="10" stroke-linecap="round"/>
<path d="M46.0565 83.1349C46.0565 83.1349 45.9777 86.1741 45.4487 87.464C44.9197 88.7539 44.001 88.6797 44.001 88.6797L43.7737 91.5704L42.8457 88.0718C42.8457 88.0718 42.6925 80.5504 42.9988 78.88C43.305 77.2096 46.3396 76.9034 46.3396 76.9034C46.3396 76.9034 43.6809 75.5114 45.1981 74.6251C46.7154 73.7389 51.0492 74.8525 51.0492 74.8525C51.0492 74.8525 50.4413 73.3306 53.1789 73.3306C55.9165 73.3306 58.5753 75.7619 59.4847 76.9034C59.9321 77.3951 60.2915 77.9601 60.5473 78.5738C60.5473 78.5738 60.9277 76.1424 61.7629 77.9659C62.5981 79.7894 62.6028 81.6779 62.2965 83.9701C62.064 85.4539 61.594 86.8906 60.9045 88.225L59.9162 92.633L59.429 88.624C58.656 88.1482 58.0658 87.4256 57.754 86.5731C57.453 85.5822 57.2494 84.5643 57.1461 83.5339C57.1461 83.5339 54.7937 85.9653 51.5271 85.5848C49.5049 85.3147 47.6046 84.4637 46.0565 83.1349Z" fill="#263238" stroke="#263238" stroke-width="0.979159" stroke-miterlimit="10" stroke-linecap="round"/>
<path d="M53.6524 91.408C53.6524 91.408 53.8797 97.8669 53.1234 98.3216C52.3671 98.7763 51.0679 97.1059 51.0679 97.1059" stroke="#263238" stroke-width="0.979159" stroke-miterlimit="10" stroke-linecap="round"/>
<path d="M49.1841 99.5466C50.1206 99.9976 51.1467 100.232 52.1862 100.232C53.2256 100.232 54.2517 99.9976 55.1882 99.5466" stroke="#263238" stroke-width="0.979159" stroke-miterlimit="10" stroke-linecap="round"/>
<path d="M54.4133 93.6816C54.4133 93.6816 55.5548 94.7673 57.7541 93.8765" stroke="#263238" stroke-width="0.979159" stroke-miterlimit="10" stroke-linecap="round"/>
<path d="M54.1858 91.2642C54.1858 91.2642 55.7031 89.668 58.668 90.7306" stroke="#263238" stroke-width="1.95832" stroke-miterlimit="10" stroke-linecap="round"/>
<path d="M49.7778 93.3151C49.3042 93.6775 48.7343 93.8924 48.1393 93.9328C47.5444 93.9732 46.9506 93.8374 46.4324 93.5424" stroke="#263238" stroke-width="0.979159" stroke-miterlimit="10" stroke-linecap="round"/>
<path d="M50.6873 91.0368C50.6873 91.0368 48.1075 89.2875 46.2051 90.2758" stroke="#263238" stroke-width="1.95832" stroke-miterlimit="10" stroke-linecap="round"/>
<path d="M40.2936 121.197L42.3306 134.954C42.3513 135.1 42.4264 135.233 42.5409 135.326C42.6553 135.419 42.8006 135.465 42.9477 135.456L49.5272 135.07C49.6079 135.065 49.6866 135.043 49.7584 135.006C49.8303 134.968 49.8938 134.917 49.9451 134.854C49.9963 134.792 50.0343 134.719 50.0566 134.642C50.0789 134.564 50.0851 134.482 50.0747 134.402L48.1074 120.519C48.0866 120.371 48.0103 120.237 47.894 120.143C47.7777 120.049 47.6301 120.003 47.481 120.014L40.8319 120.529C40.7517 120.535 40.6737 120.557 40.6026 120.595C40.5316 120.632 40.4689 120.684 40.4185 120.746C40.368 120.809 40.331 120.881 40.3095 120.959C40.288 121.036 40.2826 121.117 40.2936 121.197Z" fill="#263238" stroke="#263238" stroke-width="0.979159" stroke-miterlimit="10" stroke-linecap="round"/>
<path d="M25.5803 135.845C25.5803 135.845 25.7659 144.072 26.2995 146.81C26.8331 149.547 28.8051 150.61 31.3154 148.202C33.8256 145.793 40.2056 137.335 40.2056 137.335C40.2056 137.335 43.616 136.416 45.0683 135.952C46.5206 135.488 48.488 132.913 48.488 132.913C48.488 132.913 49.8522 132.152 49.931 131.544C50.0099 130.936 49.3232 130.709 49.3232 130.709C49.3232 130.709 50.46 130.56 50.46 130.027C50.46 129.493 48.1075 128.811 47.2723 128.811H44.544C45.5393 128.51 46.555 128.28 47.5832 128.124C48.5715 128.05 50.0146 128.203 49.7872 127.66C49.5598 127.117 48.5715 126.899 47.1285 126.598C45.6854 126.296 41.5048 127.66 40.897 128.194C40.2891 128.728 37.932 133.966 37.932 133.966L27.2971 137.084" fill="#B22023"/>
<path d="M25.5803 135.845C25.5803 135.845 25.7659 144.072 26.2995 146.81C26.8331 149.547 28.8051 150.61 31.3154 148.202C33.8256 145.793 40.2056 137.335 40.2056 137.335C40.2056 137.335 43.616 136.416 45.0683 135.952C46.5206 135.488 48.488 132.913 48.488 132.913C48.488 132.913 49.8522 132.152 49.931 131.544C50.0099 130.936 49.3232 130.709 49.3232 130.709C49.3232 130.709 50.46 130.56 50.46 130.027C50.46 129.493 48.1075 128.811 47.2723 128.811H44.544C45.5393 128.51 46.555 128.28 47.5832 128.124C48.5715 128.05 50.0146 128.203 49.7872 127.66C49.5598 127.117 48.5715 126.899 47.1285 126.598C45.6854 126.296 41.5048 127.66 40.897 128.194C40.2891 128.728 37.932 133.966 37.932 133.966L27.2971 137.084" stroke="#263238" stroke-width="0.979159" stroke-miterlimit="10" stroke-linecap="round"/>
<path d="M49.931 131.535C50.0052 130.927 49.3232 130.7 49.3232 130.7C49.3232 130.7 50.46 130.551 50.46 130.017C50.46 129.484 48.1075 128.802 47.2723 128.802H44.544C45.5393 128.5 46.555 128.271 47.5832 128.115C48.5715 128.041 50.0145 128.194 49.7872 127.651C49.5598 127.108 48.5715 126.89 47.1284 126.588C45.6854 126.287 41.5048 127.651 40.8969 128.185C40.2891 128.718 37.932 133.957 37.932 133.957L31.6308 135.813C31.023 137.033 30.5358 138.717 31.1668 140.425C31.448 141.302 31.9729 142.081 32.6803 142.671C33.3878 143.261 34.2485 143.638 35.1619 143.756C37.6675 140.671 40.2102 137.312 40.2102 137.312C40.2102 137.312 43.616 136.416 45.0683 135.952C46.5206 135.488 48.488 132.913 48.488 132.913C48.488 132.913 49.8521 132.143 49.931 131.535Z" fill="#D9D9D9" stroke="#263238" stroke-width="0.979159" stroke-miterlimit="10" stroke-linecap="round"/>
<path d="M43.2449 131.233C43.2449 131.233 45.5231 130.398 49.3233 130.7" stroke="#263238" stroke-width="0.979159" stroke-miterlimit="10" stroke-linecap="round"/>
<path d="M43.9268 133.511C43.9268 133.511 44.233 133.284 48.4879 132.904" stroke="#263238" stroke-width="0.979159" stroke-miterlimit="10" stroke-linecap="round"/>
<path d="M30.3084 209.556C30.3084 209.556 29.4546 212.693 27.5244 214.693C25.5942 216.693 22.5318 219.254 22.8194 221.681C23.1071 224.107 26.5314 224.961 29.3154 224.321C32.0994 223.68 33.097 221.75 34.3081 219.825C35.5191 217.899 36.591 216.187 38.4423 214.549C40.2937 212.911 40.0106 212.266 39.3007 210.34C38.5908 208.415 38.3031 207.705 38.3031 207.705C38.3031 207.705 32.234 210.628 30.3084 209.556Z" fill="#B22023" stroke="#263238" stroke-width="0.979159" stroke-miterlimit="10" stroke-linecap="round"/>
<path d="M38.4378 214.549C40.0294 213.157 40.0433 212.47 39.57 211.092C37.649 212.364 36.1642 215.625 34.8047 217.829C33.306 220.252 31.6634 223.397 27.7426 223.75C26.801 223.856 25.8482 223.708 24.9827 223.322C24.1173 222.936 23.3705 222.326 22.8196 221.555C22.8173 221.597 22.8173 221.639 22.8196 221.681C23.1026 224.103 26.5316 224.961 29.3156 224.321C32.0996 223.68 33.0972 221.75 34.3082 219.825C35.5193 217.899 36.5865 216.187 38.4378 214.549Z" fill="white" stroke="#263238" stroke-width="0.979159" stroke-miterlimit="10" stroke-linecap="round"/>
<path d="M42.688 157.004C42.688 157.004 36.6096 152.443 30.624 153.881C24.6384 155.319 19.7339 163.755 20.5784 166.544C21.4229 169.332 24.2069 184.946 25.8958 189.252C27.5848 193.558 29.696 207.144 29.696 207.144C29.696 207.144 29.4408 207.144 29.3573 207.905C29.2737 208.665 29.6125 210.099 29.863 210.354C30.1136 210.61 31.719 211.027 33.2409 211.027C34.7629 211.027 38.1361 210.099 38.6419 209.51C38.8415 209.294 38.9966 209.042 39.0985 208.766C39.2004 208.491 39.2471 208.198 39.2358 207.905C39.1043 207.032 38.861 206.181 38.512 205.371C38.2614 204.782 37.9227 201.91 37.9227 201.659C37.9227 201.409 37.4169 193.553 37.5005 191.108C37.584 188.662 39.1245 180.032 37.584 176.589C36.0435 173.146 35.0691 167.968 35.0691 167.968C35.7214 168.721 36.5395 169.311 37.459 169.694C38.3786 170.076 39.3744 170.24 40.368 170.172C42.7846 170.001 45.169 169.519 47.4625 168.738L49.9078 168.65" fill="white"/>
<path d="M42.688 157.004C42.688 157.004 36.6096 152.443 30.624 153.881C24.6384 155.319 19.7339 163.755 20.5784 166.544C21.4229 169.332 24.2069 184.946 25.8958 189.252C27.5848 193.558 29.696 207.144 29.696 207.144C29.696 207.144 29.4408 207.144 29.3573 207.905C29.2737 208.665 29.6125 210.099 29.863 210.354C30.1136 210.61 31.719 211.027 33.2409 211.027C34.7629 211.027 38.1361 210.099 38.6419 209.51C38.8415 209.294 38.9966 209.042 39.0985 208.766C39.2004 208.491 39.2471 208.198 39.2358 207.905C39.1043 207.032 38.861 206.181 38.512 205.371C38.2614 204.782 37.9227 201.91 37.9227 201.659C37.9227 201.408 37.4169 193.553 37.5005 191.108C37.584 188.662 39.1245 180.032 37.584 176.589C36.0435 173.146 35.0691 167.968 35.0691 167.968C35.7214 168.721 36.5395 169.311 37.459 169.694C38.3786 170.076 39.3744 170.24 40.368 170.172C42.7846 170.001 45.169 169.519 47.4625 168.738L49.9078 168.65" stroke="#263238" stroke-width="0.979159" stroke-miterlimit="10" stroke-linecap="round"/>
<path d="M64.496 207.631C64.496 207.631 65.3544 210.767 67.28 212.767C69.2056 214.767 72.268 217.328 71.9849 219.755C71.7019 222.182 68.2729 223.036 65.4889 222.395C62.7049 221.755 61.712 219.825 60.5009 217.899C59.2899 215.973 58.2181 214.266 56.3621 212.623C54.5061 210.981 54.7937 210.34 55.5083 208.415C56.2229 206.489 56.5059 205.779 56.5059 205.779C56.5059 205.779 62.5704 208.703 64.496 207.631Z" fill="#B22023" stroke="#263238" stroke-width="0.979159" stroke-miterlimit="10" stroke-linecap="round"/>
<path d="M56.3667 212.623C54.7799 211.231 54.7613 210.545 55.2392 209.167C57.1602 210.438 58.6403 213.7 60.0045 215.904C61.5032 218.331 63.1411 221.472 67.0666 221.824C68.0082 221.93 68.9608 221.782 69.8262 221.396C70.6916 221.01 71.4384 220.4 71.9896 219.63C71.9896 219.672 71.9896 219.713 71.9896 219.755C71.7066 222.177 68.2776 223.036 65.4936 222.395C62.7096 221.755 61.7167 219.825 60.5056 217.899C59.2946 215.973 58.2227 214.266 56.3667 212.623Z" fill="white" stroke="#263238" stroke-width="0.979159" stroke-miterlimit="10" stroke-linecap="round"/>
<path d="M58.0323 157.676C58.0323 157.676 65.628 151.18 72.7179 153.881C78.4762 156.076 85.1299 164.599 84.2855 167.388C83.441 170.177 77.5435 186.732 74.6807 190.365C71.8178 193.998 65.8647 206.392 65.8647 206.392C65.8647 206.392 66.1106 206.466 65.9714 207.218C65.8322 207.969 65.0898 209.245 64.7743 209.412C64.4587 209.58 62.8023 209.524 61.3499 209.083C59.8976 208.642 56.9327 206.763 56.6171 206.062C56.3597 205.529 56.323 204.915 56.5151 204.355C56.8835 203.557 57.3512 202.809 57.9071 202.128C58.32 201.636 59.4754 198.986 59.5496 198.745C59.6239 198.504 61.3824 190.435 62.0135 188.073C62.6445 185.711 62.3522 180.473 63.8695 177.016C65.3867 173.559 68.245 167.968 68.245 167.968C67.5899 168.722 66.7683 169.312 65.8453 169.693C64.9224 170.074 63.9234 170.235 62.9275 170.163C60.5125 169.991 58.1296 169.509 55.8376 168.729L53.3877 168.641" fill="white"/>
<path d="M58.0323 157.676C58.0323 157.676 65.628 151.18 72.7179 153.881C78.4762 156.076 85.1299 164.599 84.2855 167.388C83.441 170.177 77.5435 186.732 74.6807 190.365C71.8178 193.998 65.8647 206.392 65.8647 206.392C65.8647 206.392 66.1106 206.466 65.9714 207.218C65.8322 207.969 65.0898 209.245 64.7743 209.412C64.4587 209.58 62.8023 209.524 61.3499 209.083C59.8976 208.642 56.9327 206.763 56.6171 206.062C56.3597 205.529 56.323 204.915 56.5151 204.355C56.8835 203.557 57.3512 202.809 57.9071 202.128C58.32 201.636 59.4754 198.986 59.5496 198.745C59.6239 198.504 61.3824 190.435 62.0135 188.073C62.6445 185.711 62.3522 180.473 63.8695 177.016C65.3867 173.559 68.245 167.968 68.245 167.968C67.5899 168.722 66.7683 169.312 65.8453 169.693C64.9224 170.074 63.9234 170.235 62.9275 170.163C60.5125 169.991 58.1296 169.509 55.8376 168.729L53.3877 168.641" stroke="#263238" stroke-width="0.979159" stroke-miterlimit="10" stroke-linecap="round"/>
<path d="M69.9897 125.382C69.9897 125.382 76.0217 131.312 76.7224 131.771C77.423 132.231 76.495 132.528 77.1029 133.136C77.7107 133.743 78.6201 134.583 78.6201 134.583C78.5351 134.788 78.4914 135.007 78.4914 135.228C78.4914 135.45 78.5351 135.669 78.6201 135.873C78.9264 136.481 80.4437 136.708 80.4437 136.708L73.2563 150.457C73.2563 150.457 67.7115 150.921 66.4169 150.921C65.1224 150.921 63.9856 153.204 63.9856 153.733C63.9856 154.261 63.0576 157.607 63.3777 157.607C63.6979 157.607 63.4566 158.215 63.7582 158.368C64.0677 158.44 64.3922 158.414 64.6862 158.294H65.888C66.059 158.335 66.2375 158.336 66.409 158.297C66.5806 158.257 66.7406 158.178 66.8763 158.066C67.2521 157.686 69.0014 154.721 69.0014 154.721C69.0014 154.721 72.8016 155.254 74.0173 155.254C75.2329 155.254 76.2955 152.364 76.2955 152.136C76.2955 151.909 87.5104 142.179 88.8792 139.664C90.248 137.149 90.8558 133.586 89.487 131.001C88.1182 128.417 82.7544 121.661 82.128 120.519C81.5016 119.378 77.191 112.167 73.6182 110.26C70.0454 108.353 67.3867 108.209 67.3867 108.209" fill="#B22023"/>
<path d="M69.9897 125.382C69.9897 125.382 76.0217 131.312 76.7224 131.771C77.423 132.231 76.495 132.528 77.1029 133.136C77.7107 133.743 78.6201 134.583 78.6201 134.583C78.5351 134.788 78.4914 135.007 78.4914 135.228C78.4914 135.45 78.5351 135.669 78.6201 135.873C78.9264 136.481 80.4437 136.708 80.4437 136.708L73.2563 150.457C73.2563 150.457 67.7115 150.921 66.4169 150.921C65.1224 150.921 63.9856 153.204 63.9856 153.733C63.9856 154.261 63.0576 157.607 63.3777 157.607C63.6979 157.607 63.4566 158.215 63.7582 158.368C64.0677 158.44 64.3922 158.414 64.6862 158.294H65.888C66.059 158.335 66.2375 158.336 66.409 158.297C66.5806 158.257 66.7406 158.178 66.8763 158.066C67.2521 157.686 69.0014 154.721 69.0014 154.721C69.0014 154.721 72.8016 155.254 74.0173 155.254C75.2329 155.254 76.2955 152.364 76.2955 152.136C76.2955 151.909 87.5104 142.179 88.8792 139.664C90.248 137.149 90.8558 133.586 89.487 131.001C88.1182 128.417 82.7544 121.661 82.128 120.519C81.5016 119.378 77.191 112.167 73.6182 110.26C70.0454 108.353 67.3867 108.209 67.3867 108.209" stroke="#263238" stroke-width="0.979159" stroke-miterlimit="10" stroke-linecap="round"/>
<path d="M80.4436 136.416C80.4436 136.416 82.1186 132.996 85.6126 132.31" stroke="#263238" stroke-width="0.979159" stroke-miterlimit="10" stroke-linecap="round"/>
<path d="M83.3901 131.071C82.1627 131.743 81.1031 132.683 80.2905 133.822" stroke="#263238" stroke-width="0.979159" stroke-miterlimit="10" stroke-linecap="round"/>
<path d="M85.158 130.175C85.158 130.175 84.8146 130.31 84.2996 130.57" stroke="#263238" stroke-width="0.979159" stroke-miterlimit="10" stroke-linecap="round"/>
<path d="M80.2719 131.391C80.2719 131.391 78.9077 132.834 78.9077 134.277" stroke="#263238" stroke-width="0.979159" stroke-miterlimit="10" stroke-linecap="round"/>
<path d="M79.1491 138.94L73.2563 150.457C73.2563 150.457 67.7115 150.921 66.4169 150.921C65.1224 150.921 63.9856 153.204 63.9856 153.733C63.9856 154.261 63.0576 157.607 63.3777 157.607C63.6979 157.607 63.4566 158.215 63.7582 158.368C64.0677 158.44 64.3922 158.414 64.6862 158.294H65.888C66.059 158.335 66.2375 158.336 66.409 158.297C66.5806 158.257 66.7406 158.178 66.8763 158.066C67.2521 157.686 69.0014 154.721 69.0014 154.721C69.0014 154.721 72.8016 155.254 74.0173 155.254C75.2329 155.254 76.2955 152.364 76.2955 152.136C76.2955 151.909 85.028 144.712 87.9883 140.606C84.7681 136.634 80.736 138.226 79.1491 138.94Z" fill="#D9D9D9" stroke="#263238" stroke-width="0.979159" stroke-miterlimit="10" stroke-linecap="round"/>
<path d="M63.3777 157.598C63.3777 157.598 64.9738 152.958 65.7348 152.206" stroke="#263238" stroke-width="0.979159" stroke-miterlimit="10" stroke-linecap="round"/>
<path d="M64.6724 158.284C64.6724 158.284 66.1154 153.876 66.9506 152.716" stroke="#263238" stroke-width="0.979159" stroke-miterlimit="10" stroke-linecap="round"/>
<path d="M65.8879 158.284C65.8879 158.284 67.4052 154.331 68.0131 153.57" stroke="#263238" stroke-width="0.979159" stroke-miterlimit="10" stroke-linecap="round"/>
</svg>
