<svg width="50" height="50" viewBox="0 0 50 50" fill="none" xmlns="http://www.w3.org/2000/svg">
<path fill-rule="evenodd" clip-rule="evenodd" d="M15.625 10.9375C15.625 7.48572 18.4232 4.6875 21.875 4.6875H28.125C31.5768 4.6875 34.375 7.48572 34.375 10.9375V11.3645C36.3176 11.5424 38.2446 11.7749 40.1543 12.0607C43.1835 12.5139 45.3125 15.1492 45.3125 18.1369V24.456C45.3125 26.9792 43.7841 29.3568 41.2786 30.1898C36.1596 31.8917 30.6858 32.8125 25.0001 32.8125C19.3143 32.8125 13.8405 31.8916 8.72139 30.1897C6.21592 29.3567 4.6875 26.9792 4.6875 24.456V18.1369C4.6875 15.1492 6.81647 12.5139 9.84574 12.0607C11.7554 11.7749 13.6824 11.5424 15.625 11.3645V10.9375ZM31.25 10.9375V11.1267C29.1826 11.0012 27.0987 10.9375 25 10.9375C22.9014 10.9375 20.8174 11.0012 18.75 11.1267V10.9375C18.75 9.21161 20.1491 7.8125 21.875 7.8125H28.125C29.8509 7.8125 31.25 9.21161 31.25 10.9375ZM25 28.125C25.8629 28.125 26.5625 27.4254 26.5625 26.5625C26.5625 25.6996 25.8629 25 25 25C24.1371 25 23.4375 25.6996 23.4375 26.5625C23.4375 27.4254 24.1371 28.125 25 28.125Z" fill="#FFCD74"/>
<path d="M6.25 38.3332V32.5082C6.71466 32.763 7.21036 32.9805 7.73549 33.1551C13.1685 34.9614 18.975 35.9375 25.0001 35.9375C31.0251 35.9375 36.8315 34.9614 42.2645 33.1552C42.7896 32.9806 43.2853 32.7631 43.75 32.5082V38.3332C43.75 41.3581 41.5682 44.0156 38.4935 44.4238C34.0782 45.01 29.574 45.3125 25 45.3125C20.426 45.3125 15.9218 45.01 11.5065 44.4238C8.43175 44.0156 6.25 41.3581 6.25 38.3332Z" fill="#FFCD74"/>
</svg>
