<svg width="10" height="9" viewBox="0 0 10 9" fill="none" xmlns="http://www.w3.org/2000/svg">
<path d="M5.14551 0.316371C5.05236 0.123033 4.85551 0 4.63932 0C4.42314 0 4.22804 0.123033 4.13313 0.316371L3.00299 2.6417L0.479062 3.01431C0.268149 3.04595 0.0923877 3.19359 0.0273562 3.39571C-0.0376753 3.59784 0.0150529 3.82106 0.166207 3.97045L1.99764 5.78256L1.56526 8.3434C1.53011 8.55432 1.61799 8.76875 1.792 8.89354C1.966 9.01833 2.19625 9.03415 2.38607 8.93396L4.64108 7.72999L6.89609 8.93396C7.08591 9.03415 7.31616 9.02008 7.49016 8.89354C7.66417 8.76699 7.75205 8.55432 7.71689 8.3434L7.28276 5.78256L9.11419 3.97045C9.26535 3.82106 9.31983 3.59784 9.25304 3.39571C9.18625 3.19359 9.01225 3.04595 8.80134 3.01431L6.27566 2.6417L5.14551 0.316371Z" fill="#FCBE2B"/>
</svg>
