<svg width="50" height="50" viewBox="0 0 50 50" fill="none" xmlns="http://www.w3.org/2000/svg">
<path d="M23.8951 8.00208C24.5053 7.39188 25.4947 7.39189 26.1049 8.00208L44.2076 26.1049C44.8178 26.7151 45.8072 26.7151 46.4174 26.1049C47.0275 25.4947 47.0275 24.5054 46.4174 23.8952L28.3146 5.79237C26.484 3.96179 23.516 3.96179 21.6854 5.79237L3.58265 23.8952C2.97245 24.5054 2.97245 25.4947 3.58265 26.1049C4.19284 26.7151 5.18216 26.7151 5.79235 26.1049L23.8951 8.00208Z" fill="#B22023"/>
<path d="M25 11.3166L41.9979 28.3146C42.0599 28.3765 42.1231 28.4363 42.1875 28.494V41.4063C42.1875 43.5636 40.4386 45.3125 38.2812 45.3125H31.25C30.3871 45.3125 29.6875 44.613 29.6875 43.75V34.375C29.6875 33.5121 28.9879 32.8125 28.125 32.8125H21.875C21.0121 32.8125 20.3125 33.5121 20.3125 34.375V43.75C20.3125 44.613 19.6129 45.3125 18.75 45.3125H11.7188C9.56139 45.3125 7.8125 43.5636 7.8125 41.4063V28.494C7.87693 28.4363 7.94015 28.3765 8.00206 28.3146L25 11.3166Z" fill="#B22023"/>
</svg>
