<svg width="18" height="18" viewBox="0 0 18 18" fill="none" xmlns="http://www.w3.org/2000/svg">
<g clip-path="url(#clip0_1_187)">
<path d="M3.75 6.318V5.25C3.75 3.85761 4.30312 2.52226 5.28769 1.53769C6.27225 0.553124 7.60761 0 9 0C10.3924 0 11.7277 0.553124 12.7123 1.53769C13.6969 2.52226 14.25 3.85761 14.25 5.25V6.318C14.918 6.60953 15.4865 7.08939 15.8861 7.69891C16.2857 8.30842 16.499 9.02118 16.5 9.75V14.25C16.4988 15.2442 16.1033 16.1973 15.4003 16.9003C14.6973 17.6033 13.7442 17.9988 12.75 18H5.25C4.2558 17.9988 3.30267 17.6033 2.59966 16.9003C1.89666 16.1973 1.50119 15.2442 1.5 14.25V9.75C1.50096 9.02118 1.71428 8.30842 2.11387 7.69891C2.51347 7.08939 3.08202 6.60953 3.75 6.318ZM12.75 5.25C12.75 4.25544 12.3549 3.30161 11.6516 2.59835C10.9484 1.89509 9.99456 1.5 9 1.5C8.00544 1.5 7.05161 1.89509 6.34835 2.59835C5.64509 3.30161 5.25 4.25544 5.25 5.25V6H12.75V5.25ZM3 14.25C3 14.8467 3.23705 15.419 3.65901 15.841C4.08097 16.2629 4.65326 16.5 5.25 16.5H12.75C13.3467 16.5 13.919 16.2629 14.341 15.841C14.7629 15.419 15 14.8467 15 14.25V9.75C15 9.15326 14.7629 8.58097 14.341 8.15901C13.919 7.73705 13.3467 7.5 12.75 7.5H5.25C4.65326 7.5 4.08097 7.73705 3.65901 8.15901C3.23705 8.58097 3 9.15326 3 9.75V14.25Z" fill="#093C71"/>
<path d="M9 10.5C9.19891 10.5 9.38968 10.579 9.53033 10.7197C9.67098 10.8603 9.75 11.0511 9.75 11.25V12.75C9.75 12.9489 9.67098 13.1397 9.53033 13.2803C9.38968 13.421 9.19891 13.5 9 13.5C8.80109 13.5 8.61032 13.421 8.46967 13.2803C8.32902 13.1397 8.25 12.9489 8.25 12.75V11.25C8.25 11.0511 8.32902 10.8603 8.46967 10.7197C8.61032 10.579 8.80109 10.5 9 10.5Z" fill="#093C71"/>
</g>
<defs>
<clipPath id="clip0_1_187">
<rect width="18" height="18" fill="white" transform="matrix(-1 0 0 1 18 0)"/>
</clipPath>
</defs>
</svg>
