<svg width="30" height="30" viewBox="0 0 30 30" fill="none" xmlns="http://www.w3.org/2000/svg">
<path d="M18.75 23.9094C19.7912 24.2125 20.8922 24.375 22.0312 24.375C23.8796 24.375 25.6281 23.947 27.183 23.1848C27.1859 23.1131 27.1874 23.0411 27.1874 22.9688C27.1874 20.121 24.8789 17.8125 22.0312 17.8125C20.2587 17.8125 18.695 18.7069 17.767 20.069M18.75 23.9094V23.9062C18.75 22.5151 18.3935 21.2073 17.767 20.069M18.75 23.9094C18.75 23.954 18.7496 23.9985 18.7488 24.0429C16.4217 25.4441 13.6956 26.25 10.7812 26.25C7.86691 26.25 5.1408 25.4441 2.81365 24.0429C2.81289 23.9974 2.8125 23.9519 2.8125 23.9062C2.8125 19.5052 6.38023 15.9375 10.7812 15.9375C13.7911 15.9375 16.4113 17.6062 17.767 20.069M15 7.96875C15 10.2987 13.1112 12.1875 10.7812 12.1875C8.4513 12.1875 6.5625 10.2987 6.5625 7.96875C6.5625 5.6388 8.4513 3.75 10.7812 3.75C13.1112 3.75 15 5.6388 15 7.96875ZM25.3125 10.7812C25.3125 12.5934 23.8434 14.0625 22.0312 14.0625C20.2191 14.0625 18.75 12.5934 18.75 10.7812C18.75 8.96907 20.2191 7.5 22.0312 7.5C23.8434 7.5 25.3125 8.96907 25.3125 10.7812Z" stroke="#72777A" stroke-width="1.5" stroke-linecap="round" stroke-linejoin="round"/>
</svg>
